<svg width="737" height="107" viewBox="0 0 737 107" fill="none" xmlns="http://www.w3.org/2000/svg">
<path d="M115 41.9291V56.3232L87.5288 35.3207L83.9292 32.5482L58.4662 13.1028L32.1318 33.0039L28.4563 35.7764L0 57.2727C0.454695 56.2852 0.265239 42.2709 0.265239 42.2709L18.6425 28.5224L22.2801 25.7879L58.6178 0" fill="#367A9F"/>
<path d="M12.3905 54.8042L55.3592 86.4788V106H12.2389V54.9181L12.3905 54.8042Z" fill="#60AC56"/>
<path d="M33.1549 39.2324L55.3591 55.5635V81.0475L16.028 52.0694L33.1549 39.2324Z" fill="#60AC56"/>
<path d="M78.9275 36.2322L57.7084 51.8796L36.7924 36.4601L58.1252 20.4708L78.9275 36.2322Z" fill="#60AC56"/>
<path d="M99.6919 51.9556L59.944 81.2376V55.6396L82.5651 38.9667H82.603L99.6919 51.9556Z" fill="#60AC56"/>
<path d="M103.633 54.918V106H59.944V86.7066L103.367 54.7281L103.633 54.918Z" fill="#60AC56"/>
<path d="M139.12 77.2C139.12 73.7867 139.707 70.4 140.88 67.04C142.107 63.6267 143.867 60.5867 146.16 57.92C148.507 55.2 151.36 53.0133 154.72 51.36C158.08 49.7067 161.893 48.88 166.16 48.88C171.227 48.88 175.573 50.0267 179.2 52.32C182.827 54.6133 185.52 57.6 187.28 61.28L181.6 64.96C180.747 63.1467 179.707 61.6267 178.48 60.4C177.307 59.1733 176 58.1867 174.56 57.44C173.173 56.6933 171.733 56.16 170.24 55.84C168.747 55.52 167.28 55.36 165.84 55.36C162.693 55.36 159.893 56.0267 157.44 57.36C155.04 58.64 153.013 60.3467 151.36 62.48C149.707 64.56 148.453 66.9333 147.6 69.6C146.8 72.2133 146.4 74.8533 146.4 77.52C146.4 80.5067 146.88 83.36 147.84 86.08C148.853 88.7467 150.24 91.12 152 93.2C153.76 95.28 155.84 96.9333 158.24 98.16C160.64 99.3867 163.253 100 166.08 100C167.573 100 169.093 99.8133 170.64 99.44C172.24 99.0667 173.76 98.48 175.2 97.68C176.64 96.8267 177.973 95.7867 179.2 94.56C180.48 93.28 181.52 91.76 182.32 90L188.32 93.28C187.413 95.4133 186.133 97.3067 184.48 98.96C182.88 100.56 181.04 101.92 178.96 103.04C176.933 104.16 174.773 105.013 172.48 105.6C170.187 106.187 167.947 106.48 165.76 106.48C161.867 106.48 158.293 105.627 155.04 103.92C151.787 102.213 148.96 100 146.56 97.28C144.213 94.5067 142.373 91.3867 141.04 87.92C139.76 84.4 139.12 80.8267 139.12 77.2ZM208.531 106.8C206.558 106.8 204.718 106.48 203.011 105.84C201.305 105.147 199.811 104.213 198.531 103.04C197.305 101.867 196.318 100.507 195.571 98.96C194.878 97.36 194.531 95.6267 194.531 93.76C194.531 91.84 194.958 90.1067 195.811 88.56C196.665 86.96 197.865 85.6 199.411 84.48C201.011 83.36 202.878 82.48 205.011 81.84C207.198 81.2 209.571 80.88 212.131 80.88C214.158 80.88 216.211 81.0667 218.291 81.44C220.371 81.8133 222.211 82.32 223.811 82.96V79.6C223.811 76.1867 222.851 73.52 220.931 71.6C219.011 69.6267 216.291 68.64 212.771 68.64C208.558 68.64 204.131 70.2667 199.491 73.52L197.171 68.96C202.558 65.3333 207.971 63.52 213.411 63.52C218.905 63.52 223.171 64.9867 226.211 67.92C229.305 70.8533 230.851 74.9867 230.851 80.32V97.36C230.851 99.0133 231.598 99.8667 233.091 99.92V106C232.345 106.107 231.731 106.187 231.251 106.24C230.771 106.293 230.265 106.32 229.731 106.32C228.345 106.32 227.225 105.92 226.371 105.12C225.571 104.267 225.091 103.253 224.931 102.08L224.771 99.12C222.905 101.627 220.531 103.547 217.651 104.88C214.825 106.16 211.785 106.8 208.531 106.8ZM210.371 101.52C212.878 101.52 215.198 101.067 217.331 100.16C219.518 99.2 221.171 97.9467 222.291 96.4C223.305 95.3867 223.811 94.3467 223.811 93.28V87.12C220.398 85.7867 216.851 85.12 213.171 85.12C209.651 85.12 206.771 85.8667 204.531 87.36C202.345 88.8533 201.251 90.8 201.251 93.2C201.251 94.3733 201.465 95.4667 201.891 96.48C202.371 97.4933 203.011 98.3733 203.811 99.12C204.665 99.8667 205.651 100.453 206.771 100.88C207.891 101.307 209.091 101.52 210.371 101.52ZM243.868 47.6H250.908V95.2C250.908 96.7467 251.308 97.9733 252.108 98.88C252.961 99.7333 254.135 100.16 255.628 100.16C256.215 100.16 256.908 100.08 257.708 99.92C258.508 99.7067 259.255 99.4667 259.948 99.2L261.068 104.88C259.895 105.36 258.508 105.76 256.908 106.08C255.308 106.4 253.895 106.56 252.668 106.56C249.948 106.56 247.788 105.787 246.188 104.24C244.641 102.693 243.868 100.533 243.868 97.76V47.6ZM268.199 106V64.24H275.239V106H268.199ZM268.199 56.4V47.6H275.239V56.4H268.199ZM290.476 106V69.76H284.796V64.24H290.476V63.36C290.476 58.1867 291.623 54.1333 293.916 51.2C296.21 48.2667 299.33 46.8 303.276 46.8C304.93 46.8 306.556 47.04 308.156 47.52C309.756 47.9467 311.196 48.56 312.476 49.36L310.716 54.56C309.97 54.0267 309.036 53.6 307.916 53.28C306.85 52.96 305.783 52.8 304.716 52.8C302.37 52.8 300.583 53.68 299.356 55.44C298.13 57.2 297.516 59.76 297.516 63.12V64.24H308.636V69.76H297.516V106H290.476ZM334.561 106.8C331.414 106.8 328.534 106.213 325.921 105.04C323.361 103.867 321.147 102.293 319.281 100.32C317.467 98.3467 316.054 96.0533 315.041 93.44C314.027 90.8267 313.521 88.08 313.521 85.2C313.521 82.2667 314.027 79.4933 315.041 76.88C316.107 74.2667 317.547 71.9733 319.361 70C321.227 68.0267 323.441 66.4533 326.001 65.28C328.614 64.1067 331.467 63.52 334.561 63.52C337.654 63.52 340.507 64.1067 343.121 65.28C345.734 66.4533 347.947 68.0267 349.761 70C351.627 71.9733 353.067 74.2667 354.081 76.88C355.147 79.4933 355.681 82.2667 355.681 85.2C355.681 88.08 355.174 90.8267 354.161 93.44C353.147 96.0533 351.707 98.3467 349.841 100.32C347.974 102.293 345.734 103.867 343.121 105.04C340.561 106.213 337.707 106.8 334.561 106.8ZM320.721 85.28C320.721 87.4667 321.067 89.4933 321.761 91.36C322.507 93.2267 323.494 94.8533 324.721 96.24C326.001 97.6267 327.467 98.72 329.121 99.52C330.827 100.32 332.641 100.72 334.561 100.72C336.481 100.72 338.267 100.32 339.921 99.52C341.627 98.72 343.121 97.6267 344.401 96.24C345.681 94.8 346.667 93.1467 347.361 91.28C348.107 89.36 348.481 87.3067 348.481 85.12C348.481 82.9867 348.107 80.9867 347.361 79.12C346.667 77.2 345.681 75.5467 344.401 74.16C343.121 72.72 341.627 71.6 339.921 70.8C338.267 70 336.481 69.6 334.561 69.6C332.641 69.6 330.827 70.0267 329.121 70.88C327.467 71.68 326.001 72.8 324.721 74.24C323.494 75.6267 322.507 77.28 321.761 79.2C321.067 81.0667 320.721 83.0933 320.721 85.28ZM387.891 70.4C384.371 70.5067 381.251 71.4133 378.531 73.12C375.865 74.8267 373.971 77.2 372.851 80.24V106H365.811V64.24H372.371V73.92C373.811 71.04 375.705 68.72 378.051 66.96C380.398 65.1467 382.905 64.1333 385.571 63.92C386.105 63.92 386.558 63.92 386.931 63.92C387.305 63.92 387.625 63.9467 387.891 64V70.4ZM432.714 106H425.674V82.64C425.674 78.16 424.98 74.9067 423.594 72.88C422.26 70.8533 420.207 69.84 417.434 69.84C415.994 69.84 414.554 70.1333 413.114 70.72C411.674 71.2533 410.314 72 409.034 72.96C407.754 73.92 406.634 75.0667 405.674 76.4C404.714 77.7333 403.994 79.2 403.514 80.8V106H396.474V64.24H402.874V73.2C404.527 70.2667 406.9 67.92 409.994 66.16C413.14 64.4 416.554 63.52 420.234 63.52C422.634 63.52 424.634 63.9733 426.234 64.88C427.834 65.7333 429.114 66.96 430.074 68.56C431.034 70.1067 431.7 71.9467 432.074 74.08C432.5 76.2133 432.714 78.5333 432.714 81.04V106ZM445.261 106V64.24H452.301V106H445.261ZM445.261 56.4V47.6H452.301V56.4H445.261ZM476.019 106.8C474.045 106.8 472.205 106.48 470.499 105.84C468.792 105.147 467.299 104.213 466.019 103.04C464.792 101.867 463.805 100.507 463.059 98.96C462.365 97.36 462.019 95.6267 462.019 93.76C462.019 91.84 462.445 90.1067 463.299 88.56C464.152 86.96 465.352 85.6 466.899 84.48C468.499 83.36 470.365 82.48 472.499 81.84C474.685 81.2 477.059 80.88 479.619 80.88C481.645 80.88 483.699 81.0667 485.779 81.44C487.859 81.8133 489.699 82.32 491.299 82.96V79.6C491.299 76.1867 490.339 73.52 488.419 71.6C486.499 69.6267 483.779 68.64 480.259 68.64C476.045 68.64 471.619 70.2667 466.979 73.52L464.659 68.96C470.045 65.3333 475.459 63.52 480.899 63.52C486.392 63.52 490.659 64.9867 493.699 67.92C496.792 70.8533 498.339 74.9867 498.339 80.32V97.36C498.339 99.0133 499.085 99.8667 500.579 99.92V106C499.832 106.107 499.219 106.187 498.739 106.24C498.259 106.293 497.752 106.32 497.219 106.32C495.832 106.32 494.712 105.92 493.859 105.12C493.059 104.267 492.579 103.253 492.419 102.08L492.259 99.12C490.392 101.627 488.019 103.547 485.139 104.88C482.312 106.16 479.272 106.8 476.019 106.8ZM477.859 101.52C480.365 101.52 482.685 101.067 484.819 100.16C487.005 99.2 488.659 97.9467 489.779 96.4C490.792 95.3867 491.299 94.3467 491.299 93.28V87.12C487.885 85.7867 484.339 85.12 480.659 85.12C477.139 85.12 474.259 85.8667 472.019 87.36C469.832 88.8533 468.739 90.8 468.739 93.2C468.739 94.3733 468.952 95.4667 469.379 96.48C469.859 97.4933 470.499 98.3733 471.299 99.12C472.152 99.8667 473.139 100.453 474.259 100.88C475.379 101.307 476.579 101.52 477.859 101.52ZM510.396 106V49.2H549.356V62.8H525.996V72.24H545.036V84.88H525.996V106H510.396ZM556.683 106V49.2H572.283V106H556.683ZM583.674 106V49.2H609.754C612.527 49.2 615.087 49.7867 617.434 50.96C619.78 52.08 621.78 53.5733 623.434 55.44C625.14 57.2533 626.474 59.36 627.434 61.76C628.394 64.1067 628.874 66.48 628.874 68.88C628.874 72.1867 628.154 75.28 626.714 78.16C625.274 80.9867 623.274 83.3067 620.714 85.12L633.514 106H615.914L605.114 88.56H599.274V106H583.674ZM599.274 74.96H609.114C610.074 74.96 610.954 74.4267 611.754 73.36C612.607 72.2933 613.034 70.8 613.034 68.88C613.034 66.9067 612.554 65.4133 611.594 64.4C610.634 63.3333 609.674 62.8 608.714 62.8H599.274V74.96ZM674.517 67.76C672.917 66.8 671.264 65.9467 669.557 65.2C668.117 64.56 666.491 63.9733 664.677 63.44C662.917 62.8533 661.184 62.56 659.477 62.56C658.091 62.56 656.971 62.7733 656.117 63.2C655.317 63.6267 654.917 64.3467 654.917 65.36C654.917 66.1067 655.157 66.72 655.637 67.2C656.117 67.68 656.811 68.1333 657.717 68.56C658.624 68.9333 659.717 69.3067 660.997 69.68C662.331 70.0533 663.824 70.5067 665.477 71.04C668.091 71.84 670.437 72.72 672.517 73.68C674.651 74.64 676.464 75.7867 677.957 77.12C679.451 78.4 680.597 79.9733 681.397 81.84C682.197 83.7067 682.597 85.9733 682.597 88.64C682.597 92.0533 681.957 94.9333 680.677 97.28C679.451 99.5733 677.797 101.413 675.717 102.8C673.691 104.187 671.371 105.2 668.757 105.84C666.197 106.427 663.611 106.72 660.997 106.72C658.917 106.72 656.784 106.56 654.597 106.24C652.411 105.92 650.224 105.467 648.037 104.88C645.904 104.293 643.824 103.6 641.797 102.8C639.824 102 637.984 101.093 636.277 100.08L642.997 86.4C644.864 87.5733 646.811 88.6133 648.837 89.52C650.544 90.32 652.464 91.04 654.597 91.68C656.784 92.32 658.997 92.64 661.237 92.64C662.944 92.64 664.117 92.4267 664.757 92C665.451 91.52 665.797 90.9067 665.797 90.16C665.797 89.36 665.451 88.6933 664.757 88.16C664.117 87.5733 663.211 87.0667 662.037 86.64C660.864 86.2133 659.504 85.7867 657.957 85.36C656.464 84.9333 654.864 84.4267 653.157 83.84C650.651 82.9867 648.491 82.08 646.677 81.12C644.864 80.1067 643.371 78.9867 642.197 77.76C641.024 76.48 640.144 75.04 639.557 73.44C639.024 71.84 638.757 70 638.757 67.92C638.757 64.7733 639.317 62 640.437 59.6C641.611 57.2 643.184 55.2 645.157 53.6C647.131 52 649.371 50.8 651.877 50C654.437 49.1467 657.131 48.72 659.957 48.72C662.037 48.72 664.064 48.9333 666.037 49.36C668.011 49.7333 669.904 50.24 671.717 50.88C673.584 51.4667 675.317 52.1333 676.917 52.88C678.517 53.5733 679.957 54.24 681.237 54.88L674.517 67.76ZM735.333 62.8H719.013V106H703.413V62.8H687.013V49.2H735.333V62.8Z" fill="#54565A"/>
</svg>
