<svg width="161" height="26" viewBox="0 0 161 26" fill="none" xmlns="http://www.w3.org/2000/svg">
<path d="M24.1887 8.8192V11.8468L18.4105 7.42922L17.6533 6.84606L12.2976 2.756L6.75848 6.94192L5.9854 7.52508L0 12.0465C0.0956388 11.8388 0.0557893 8.89109 0.0557893 8.89109L3.92119 5.99929L4.6863 5.42413L12.3294 0" fill="#367A9F"/>
<path d="M2.60616 11.5273L11.644 18.1896V22.2956H2.57428V11.5512L2.60616 11.5273Z" fill="#60AC56"/>
<path d="M6.97364 8.25195L11.644 11.687V17.0472L3.37125 10.952L6.97364 8.25195Z" fill="#60AC56"/>
<path d="M16.6013 7.62091L12.1382 10.9121L7.73877 7.66884L12.2258 4.30573L16.6013 7.62091Z" fill="#60AC56"/>
<path d="M20.9688 10.9281L12.6084 17.0872V11.703L17.3664 8.19608H17.3744L20.9688 10.9281Z" fill="#60AC56"/>
<path d="M21.7977 11.5512V22.2956H12.6084V18.2375L21.7419 11.5113L21.7977 11.5512Z" fill="#60AC56"/>
<path d="M29.7737 16.5565C29.7737 15.9165 29.8837 15.2815 30.1037 14.6515C30.3337 14.0115 30.6637 13.4415 31.0937 12.9415C31.5337 12.4315 32.0687 12.0215 32.6987 11.7115C33.3287 11.4015 34.0437 11.2465 34.8437 11.2465C35.7937 11.2465 36.6087 11.4615 37.2887 11.8915C37.9687 12.3215 38.4737 12.8815 38.8037 13.5715L37.7387 14.2615C37.5787 13.9215 37.3837 13.6365 37.1537 13.4065C36.9337 13.1765 36.6887 12.9915 36.4187 12.8515C36.1587 12.7115 35.8887 12.6115 35.6087 12.5515C35.3287 12.4915 35.0537 12.4615 34.7837 12.4615C34.1937 12.4615 33.6687 12.5865 33.2087 12.8365C32.7587 13.0765 32.3787 13.3965 32.0687 13.7965C31.7587 14.1865 31.5237 14.6315 31.3637 15.1315C31.2137 15.6215 31.1387 16.1165 31.1387 16.6165C31.1387 17.1765 31.2287 17.7115 31.4087 18.2215C31.5987 18.7215 31.8587 19.1665 32.1887 19.5565C32.5187 19.9465 32.9087 20.2565 33.3587 20.4865C33.8087 20.7165 34.2987 20.8315 34.8287 20.8315C35.1087 20.8315 35.3937 20.7965 35.6837 20.7265C35.9837 20.6565 36.2687 20.5465 36.5387 20.3965C36.8087 20.2365 37.0587 20.0415 37.2887 19.8115C37.5287 19.5715 37.7237 19.2865 37.8737 18.9565L38.9987 19.5715C38.8287 19.9715 38.5887 20.3265 38.2787 20.6365C37.9787 20.9365 37.6337 21.1915 37.2437 21.4015C36.8637 21.6115 36.4587 21.7715 36.0287 21.8815C35.5987 21.9915 35.1787 22.0465 34.7687 22.0465C34.0387 22.0465 33.3687 21.8865 32.7587 21.5665C32.1487 21.2465 31.6187 20.8315 31.1687 20.3215C30.7287 19.8015 30.3837 19.2165 30.1337 18.5665C29.8937 17.9065 29.7737 17.2365 29.7737 16.5565ZM44.0883 22.1065C43.7183 22.1065 43.3733 22.0465 43.0533 21.9265C42.7333 21.7965 42.4533 21.6215 42.2133 21.4015C41.9833 21.1815 41.7983 20.9265 41.6583 20.6365C41.5283 20.3365 41.4633 20.0115 41.4633 19.6615C41.4633 19.3015 41.5433 18.9765 41.7033 18.6865C41.8633 18.3865 42.0883 18.1315 42.3783 17.9215C42.6783 17.7115 43.0283 17.5465 43.4283 17.4265C43.8383 17.3065 44.2833 17.2465 44.7633 17.2465C45.1433 17.2465 45.5283 17.2815 45.9183 17.3515C46.3083 17.4215 46.6533 17.5165 46.9533 17.6365V17.0065C46.9533 16.3665 46.7733 15.8665 46.4133 15.5065C46.0533 15.1365 45.5433 14.9515 44.8833 14.9515C44.0933 14.9515 43.2633 15.2565 42.3933 15.8665L41.9583 15.0115C42.9683 14.3315 43.9833 13.9915 45.0033 13.9915C46.0333 13.9915 46.8333 14.2665 47.4033 14.8165C47.9833 15.3665 48.2733 16.1415 48.2733 17.1415V20.3365C48.2733 20.6465 48.4133 20.8065 48.6933 20.8165V21.9565C48.5533 21.9765 48.4383 21.9915 48.3483 22.0015C48.2583 22.0115 48.1633 22.0165 48.0633 22.0165C47.8033 22.0165 47.5933 21.9415 47.4333 21.7915C47.2833 21.6315 47.1933 21.4415 47.1633 21.2215L47.1333 20.6665C46.7833 21.1365 46.3383 21.4965 45.7983 21.7465C45.2683 21.9865 44.6983 22.1065 44.0883 22.1065ZM44.4333 21.1165C44.9033 21.1165 45.3383 21.0315 45.7383 20.8615C46.1483 20.6815 46.4583 20.4465 46.6683 20.1565C46.8583 19.9665 46.9533 19.7715 46.9533 19.5715V18.4165C46.3133 18.1665 45.6483 18.0415 44.9583 18.0415C44.2983 18.0415 43.7583 18.1815 43.3383 18.4615C42.9283 18.7415 42.7233 19.1065 42.7233 19.5565C42.7233 19.7765 42.7633 19.9815 42.8433 20.1715C42.9333 20.3615 43.0533 20.5265 43.2033 20.6665C43.3633 20.8065 43.5483 20.9165 43.7583 20.9965C43.9683 21.0765 44.1933 21.1165 44.4333 21.1165ZM52.014 11.0065H53.334V19.9315C53.334 20.2215 53.409 20.4515 53.559 20.6215C53.719 20.7815 53.939 20.8615 54.219 20.8615C54.329 20.8615 54.459 20.8465 54.609 20.8165C54.759 20.7765 54.899 20.7315 55.029 20.6815L55.239 21.7465C55.019 21.8365 54.759 21.9115 54.459 21.9715C54.159 22.0315 53.894 22.0615 53.664 22.0615C53.154 22.0615 52.749 21.9165 52.449 21.6265C52.159 21.3365 52.014 20.9315 52.014 20.4115V11.0065ZM57.876 21.9565V14.1265H59.196V21.9565H57.876ZM57.876 12.6565V11.0065H59.196V12.6565H57.876ZM63.353 21.9565V15.1615H62.288V14.1265H63.353V13.9615C63.353 12.9915 63.568 12.2315 63.998 11.6815C64.428 11.1315 65.013 10.8565 65.753 10.8565C66.063 10.8565 66.368 10.9015 66.668 10.9915C66.968 11.0715 67.238 11.1865 67.478 11.3365L67.148 12.3115C67.008 12.2115 66.833 12.1315 66.623 12.0715C66.423 12.0115 66.223 11.9815 66.023 11.9815C65.583 11.9815 65.248 12.1465 65.018 12.4765C64.788 12.8065 64.673 13.2865 64.673 13.9165V14.1265H66.758V15.1615H64.673V21.9565H63.353ZM72.9188 22.1065C72.3288 22.1065 71.7888 21.9965 71.2988 21.7765C70.8188 21.5565 70.4038 21.2615 70.0538 20.8915C69.7138 20.5215 69.4488 20.0915 69.2588 19.6015C69.0688 19.1115 68.9738 18.5965 68.9738 18.0565C68.9738 17.5065 69.0688 16.9865 69.2588 16.4965C69.4588 16.0065 69.7288 15.5765 70.0688 15.2065C70.4188 14.8365 70.8338 14.5415 71.3138 14.3215C71.8038 14.1015 72.3388 13.9915 72.9188 13.9915C73.4988 13.9915 74.0338 14.1015 74.5238 14.3215C75.0138 14.5415 75.4288 14.8365 75.7688 15.2065C76.1188 15.5765 76.3888 16.0065 76.5788 16.4965C76.7788 16.9865 76.8788 17.5065 76.8788 18.0565C76.8788 18.5965 76.7838 19.1115 76.5938 19.6015C76.4038 20.0915 76.1338 20.5215 75.7838 20.8915C75.4338 21.2615 75.0138 21.5565 74.5238 21.7765C74.0438 21.9965 73.5088 22.1065 72.9188 22.1065ZM70.3238 18.0715C70.3238 18.4815 70.3888 18.8615 70.5188 19.2115C70.6588 19.5615 70.8438 19.8665 71.0738 20.1265C71.3138 20.3865 71.5888 20.5915 71.8988 20.7415C72.2188 20.8915 72.5588 20.9665 72.9188 20.9665C73.2788 20.9665 73.6138 20.8915 73.9238 20.7415C74.2438 20.5915 74.5238 20.3865 74.7638 20.1265C75.0038 19.8565 75.1888 19.5465 75.3188 19.1965C75.4588 18.8365 75.5288 18.4515 75.5288 18.0415C75.5288 17.6415 75.4588 17.2665 75.3188 16.9165C75.1888 16.5565 75.0038 16.2465 74.7638 15.9865C74.5238 15.7165 74.2438 15.5065 73.9238 15.3565C73.6138 15.2065 73.2788 15.1315 72.9188 15.1315C72.5588 15.1315 72.2188 15.2115 71.8988 15.3715C71.5888 15.5215 71.3138 15.7315 71.0738 16.0015C70.8438 16.2615 70.6588 16.5715 70.5188 16.9315C70.3888 17.2815 70.3238 17.6615 70.3238 18.0715ZM84.2183 15.2815C83.5583 15.3015 82.9733 15.4715 82.4633 15.7915C81.9633 16.1115 81.6083 16.5565 81.3983 17.1265V21.9565H80.0783V14.1265H81.3083V15.9415C81.5783 15.4015 81.9333 14.9665 82.3733 14.6365C82.8133 14.2965 83.2833 14.1065 83.7833 14.0665C83.8833 14.0665 83.9683 14.0665 84.0383 14.0665C84.1083 14.0665 84.1683 14.0715 84.2183 14.0815V15.2815ZM93.9226 21.9565H92.6025V17.5765C92.6025 16.7365 92.4725 16.1265 92.2125 15.7465C91.9625 15.3665 91.5775 15.1765 91.0575 15.1765C90.7875 15.1765 90.5175 15.2315 90.2475 15.3415C89.9775 15.4415 89.7225 15.5815 89.4825 15.7615C89.2425 15.9415 89.0325 16.1565 88.8525 16.4065C88.6725 16.6565 88.5375 16.9315 88.4475 17.2315V21.9565H87.1275V14.1265H88.3275V15.8065C88.6375 15.2565 89.0825 14.8165 89.6625 14.4865C90.2525 14.1565 90.8925 13.9915 91.5826 13.9915C92.0325 13.9915 92.4075 14.0765 92.7075 14.2465C93.0075 14.4065 93.2475 14.6365 93.4275 14.9365C93.6075 15.2265 93.7325 15.5715 93.8026 15.9715C93.8826 16.3715 93.9226 16.8065 93.9226 17.2765V21.9565ZM97.5752 21.9565V14.1265H98.8952V21.9565H97.5752ZM97.5752 12.6565V11.0065H98.8952V12.6565H97.5752ZM104.642 22.1065C104.272 22.1065 103.927 22.0465 103.607 21.9265C103.287 21.7965 103.007 21.6215 102.767 21.4015C102.537 21.1815 102.352 20.9265 102.212 20.6365C102.082 20.3365 102.017 20.0115 102.017 19.6615C102.017 19.3015 102.097 18.9765 102.257 18.6865C102.417 18.3865 102.642 18.1315 102.932 17.9215C103.232 17.7115 103.582 17.5465 103.982 17.4265C104.392 17.3065 104.837 17.2465 105.317 17.2465C105.697 17.2465 106.082 17.2815 106.472 17.3515C106.862 17.4215 107.207 17.5165 107.507 17.6365V17.0065C107.507 16.3665 107.327 15.8665 106.967 15.5065C106.607 15.1365 106.097 14.9515 105.437 14.9515C104.647 14.9515 103.817 15.2565 102.947 15.8665L102.512 15.0115C103.522 14.3315 104.537 13.9915 105.557 13.9915C106.587 13.9915 107.387 14.2665 107.957 14.8165C108.537 15.3665 108.827 16.1415 108.827 17.1415V20.3365C108.827 20.6465 108.967 20.8065 109.247 20.8165V21.9565C109.107 21.9765 108.992 21.9915 108.902 22.0015C108.812 22.0115 108.717 22.0165 108.617 22.0165C108.357 22.0165 108.147 21.9415 107.987 21.7915C107.837 21.6315 107.747 21.4415 107.717 21.2215L107.687 20.6665C107.337 21.1365 106.892 21.4965 106.352 21.7465C105.822 21.9865 105.252 22.1065 104.642 22.1065ZM104.987 21.1165C105.457 21.1165 105.892 21.0315 106.292 20.8615C106.702 20.6815 107.012 20.4465 107.222 20.1565C107.412 19.9665 107.507 19.7715 107.507 19.5715V18.4165C106.867 18.1665 106.202 18.0415 105.512 18.0415C104.852 18.0415 104.312 18.1815 103.892 18.4615C103.482 18.7415 103.277 19.1065 103.277 19.5565C103.277 19.7765 103.317 19.9815 103.397 20.1715C103.487 20.3615 103.607 20.5265 103.757 20.6665C103.917 20.8065 104.102 20.9165 104.312 20.9965C104.522 21.0765 104.747 21.1165 104.987 21.1165ZM112.388 21.9565V11.3065H119.693V13.8565H115.313V15.6265H118.883V17.9965H115.313V21.9565H112.388ZM122.367 21.9565V11.3065H125.292V21.9565H122.367ZM128.728 21.9565V11.3065H133.618C134.138 11.3065 134.618 11.4165 135.058 11.6365C135.498 11.8465 135.873 12.1265 136.183 12.4765C136.503 12.8165 136.753 13.2115 136.933 13.6615C137.113 14.1015 137.203 14.5465 137.203 14.9965C137.203 15.6165 137.068 16.1965 136.798 16.7365C136.528 17.2665 136.153 17.7015 135.673 18.0415L138.073 21.9565H134.773L132.748 18.6865H131.653V21.9565H128.728ZM131.653 16.1365H133.498C133.678 16.1365 133.843 16.0365 133.993 15.8365C134.153 15.6365 134.233 15.3565 134.233 14.9965C134.233 14.6265 134.143 14.3465 133.963 14.1565C133.783 13.9565 133.603 13.8565 133.423 13.8565H131.653V16.1365ZM147.061 14.7865C146.761 14.6065 146.451 14.4465 146.131 14.3065C145.861 14.1865 145.556 14.0765 145.216 13.9765C144.886 13.8665 144.561 13.8115 144.241 13.8115C143.981 13.8115 143.771 13.8515 143.611 13.9315C143.461 14.0115 143.386 14.1465 143.386 14.3365C143.386 14.4765 143.431 14.5915 143.521 14.6815C143.611 14.7715 143.741 14.8565 143.911 14.9365C144.081 15.0065 144.286 15.0765 144.526 15.1465C144.776 15.2165 145.056 15.3015 145.366 15.4015C145.856 15.5515 146.296 15.7165 146.686 15.8965C147.086 16.0765 147.426 16.2915 147.706 16.5415C147.986 16.7815 148.201 17.0765 148.351 17.4265C148.501 17.7765 148.576 18.2015 148.576 18.7015C148.576 19.3415 148.456 19.8815 148.216 20.3215C147.986 20.7515 147.676 21.0965 147.286 21.3565C146.906 21.6165 146.471 21.8065 145.981 21.9265C145.501 22.0365 145.016 22.0915 144.526 22.0915C144.136 22.0915 143.736 22.0615 143.326 22.0015C142.916 21.9415 142.506 21.8565 142.096 21.7465C141.696 21.6365 141.306 21.5065 140.926 21.3565C140.556 21.2065 140.211 21.0365 139.891 20.8465L141.151 18.2815C141.501 18.5015 141.866 18.6965 142.246 18.8665C142.566 19.0165 142.926 19.1515 143.326 19.2715C143.736 19.3915 144.151 19.4515 144.571 19.4515C144.891 19.4515 145.111 19.4115 145.231 19.3315C145.361 19.2415 145.426 19.1265 145.426 18.9865C145.426 18.8365 145.361 18.7115 145.231 18.6115C145.111 18.5015 144.941 18.4065 144.721 18.3265C144.501 18.2465 144.246 18.1665 143.956 18.0865C143.676 18.0065 143.376 17.9115 143.056 17.8015C142.586 17.6415 142.181 17.4715 141.841 17.2915C141.501 17.1015 141.221 16.8915 141.001 16.6615C140.781 16.4215 140.616 16.1515 140.506 15.8515C140.406 15.5515 140.356 15.2065 140.356 14.8165C140.356 14.2265 140.461 13.7065 140.671 13.2565C140.891 12.8065 141.186 12.4315 141.556 12.1315C141.926 11.8315 142.346 11.6065 142.816 11.4565C143.296 11.2965 143.801 11.2165 144.331 11.2165C144.721 11.2165 145.101 11.2565 145.471 11.3365C145.841 11.4065 146.196 11.5015 146.536 11.6215C146.886 11.7315 147.211 11.8565 147.511 11.9965C147.811 12.1265 148.081 12.2515 148.321 12.3715L147.061 14.7865ZM159.764 13.8565H156.704V21.9565H153.779V13.8565H150.704V11.3065H159.764V13.8565Z" fill="white"/>
</svg>
