<svg width="281" height="68" viewBox="0 0 281 68" fill="none" xmlns="http://www.w3.org/2000/svg">
<path d="M47.5068 21.5029H51.4375V23H44.3486L48.0127 18.5635C48.3727 18.1214 48.6735 17.7386 48.915 17.415C49.1611 17.0915 49.348 16.8203 49.4756 16.6016C49.7354 16.1732 49.8652 15.7881 49.8652 15.4463C49.8652 14.9541 49.6921 14.5417 49.3457 14.209C48.9993 13.8763 48.571 13.71 48.0605 13.71C46.9941 13.71 46.3835 14.3411 46.2285 15.6035H44.6426C44.8978 13.3796 46.0212 12.2676 48.0127 12.2676C48.9743 12.2676 49.7809 12.5729 50.4326 13.1836C51.0889 13.7943 51.417 14.5508 51.417 15.4531C51.417 16.0273 51.2643 16.5902 50.959 17.1416C50.804 17.4287 50.5762 17.7705 50.2754 18.167C49.9792 18.5589 49.6032 19.0238 49.1475 19.5615L47.5068 21.5029ZM53.3354 17.6543C53.3354 15.9727 53.7273 14.6305 54.5111 13.6279C55.213 12.721 56.0629 12.2676 57.0609 12.2676C58.059 12.2676 58.9089 12.721 59.6107 13.6279C60.3946 14.6305 60.7865 15.9954 60.7865 17.7227C60.7865 19.4453 60.3946 20.8079 59.6107 21.8105C58.9089 22.7174 58.0613 23.1709 57.0678 23.1709C56.0743 23.1709 55.2221 22.7174 54.5111 21.8105C53.7273 20.8079 53.3354 19.4225 53.3354 17.6543ZM54.9008 17.6611C54.9008 18.8324 55.1036 19.8053 55.5092 20.5801C55.9148 21.3411 56.432 21.7217 57.0609 21.7217C57.6853 21.7217 58.2025 21.3411 58.6127 20.5801C59.0229 19.8236 59.2279 18.8688 59.2279 17.7158C59.2279 16.5628 59.0229 15.6058 58.6127 14.8447C58.2025 14.0882 57.6853 13.71 57.0609 13.71C56.4411 13.71 55.9262 14.0882 55.516 14.8447C55.1059 15.5967 54.9008 16.5355 54.9008 17.6611ZM64.9881 21.5029H68.9188V23H61.8299L65.4939 18.5635C65.854 18.1214 66.1548 17.7386 66.3963 17.415C66.6424 17.0915 66.8292 16.8203 66.9568 16.6016C67.2166 16.1732 67.3465 15.7881 67.3465 15.4463C67.3465 14.9541 67.1733 14.5417 66.827 14.209C66.4806 13.8763 66.0522 13.71 65.5418 13.71C64.4754 13.71 63.8647 14.3411 63.7098 15.6035H62.1238C62.379 13.3796 63.5024 12.2676 65.4939 12.2676C66.4555 12.2676 67.2622 12.5729 67.9139 13.1836C68.5701 13.7943 68.8982 14.5508 68.8982 15.4531C68.8982 16.0273 68.7456 16.5902 68.4402 17.1416C68.2853 17.4287 68.0574 17.7705 67.7566 18.167C67.4604 18.5589 67.0844 19.0238 66.6287 19.5615L64.9881 21.5029ZM70.8166 17.6543C70.8166 15.9727 71.2085 14.6305 71.9924 13.6279C72.6942 12.721 73.5441 12.2676 74.5422 12.2676C75.5402 12.2676 76.3902 12.721 77.092 13.6279C77.8758 14.6305 78.2678 15.9954 78.2678 17.7227C78.2678 19.4453 77.8758 20.8079 77.092 21.8105C76.3902 22.7174 75.5425 23.1709 74.549 23.1709C73.5555 23.1709 72.7033 22.7174 71.9924 21.8105C71.2085 20.8079 70.8166 19.4225 70.8166 17.6543ZM72.382 17.6611C72.382 18.8324 72.5848 19.8053 72.9904 20.5801C73.396 21.3411 73.9133 21.7217 74.5422 21.7217C75.1665 21.7217 75.6838 21.3411 76.0939 20.5801C76.5041 19.8236 76.7092 18.8688 76.7092 17.7158C76.7092 16.5628 76.5041 15.6058 76.0939 14.8447C75.6838 14.0882 75.1665 13.71 74.5422 13.71C73.9224 13.71 73.4074 14.0882 72.9973 14.8447C72.5871 15.5967 72.382 16.5355 72.382 17.6611ZM88.2227 18.502L91.4902 23H89.542L86.5273 18.6797H86.2402V23H84.6475V12.4453H86.5137C87.9082 12.4453 88.9154 12.7074 89.5352 13.2314C90.2188 13.8148 90.5605 14.585 90.5605 15.542C90.5605 16.2894 90.3464 16.932 89.918 17.4697C89.4896 18.0075 88.9245 18.3516 88.2227 18.502ZM86.2402 17.292H86.7461C88.2546 17.292 89.0088 16.7155 89.0088 15.5625C89.0088 14.4824 88.2751 13.9424 86.8076 13.9424H86.2402V17.292ZM98.7201 20.0332H93.9486C93.9896 20.5801 94.1674 21.0153 94.4818 21.3389C94.7963 21.6579 95.1996 21.8174 95.6918 21.8174C96.0746 21.8174 96.3913 21.7262 96.642 21.5439C96.8881 21.3617 97.1684 21.0244 97.4828 20.5322L98.7816 21.2568C98.5811 21.5986 98.3692 21.8926 98.1459 22.1387C97.9226 22.3802 97.6833 22.5807 97.4281 22.7402C97.1729 22.8952 96.8972 23.0091 96.601 23.082C96.3048 23.1549 95.9835 23.1914 95.6371 23.1914C94.6436 23.1914 93.8461 22.8724 93.2445 22.2344C92.643 21.5918 92.3422 20.7396 92.3422 19.6777C92.3422 18.625 92.6339 17.7728 93.2172 17.1211C93.8051 16.4785 94.5844 16.1572 95.5551 16.1572C96.5349 16.1572 97.3096 16.4694 97.8793 17.0938C98.4444 17.7135 98.727 18.5726 98.727 19.6709L98.7201 20.0332ZM97.141 18.7754C96.9268 17.9551 96.4096 17.5449 95.5893 17.5449C95.4024 17.5449 95.227 17.5745 95.0629 17.6338C94.8988 17.6885 94.7484 17.7705 94.6117 17.8799C94.4796 17.9847 94.3656 18.1123 94.2699 18.2627C94.1742 18.4131 94.1013 18.584 94.0512 18.7754H97.141ZM100.509 16.3418H102.054V16.957C102.591 16.4238 103.197 16.1572 103.872 16.1572C104.647 16.1572 105.25 16.401 105.683 16.8887C106.057 17.3034 106.244 17.9801 106.244 18.9189V23H104.699V19.2812C104.699 18.625 104.608 18.1715 104.426 17.9209C104.248 17.6657 103.924 17.5381 103.455 17.5381C102.944 17.5381 102.582 17.7067 102.368 18.0439C102.158 18.3766 102.054 18.9577 102.054 19.7871V23H100.509V16.3418ZM114.356 20.0332H109.584C109.625 20.5801 109.803 21.0153 110.117 21.3389C110.432 21.6579 110.835 21.8174 111.327 21.8174C111.71 21.8174 112.027 21.7262 112.278 21.5439C112.524 21.3617 112.804 21.0244 113.118 20.5322L114.417 21.2568C114.217 21.5986 114.005 21.8926 113.781 22.1387C113.558 22.3802 113.319 22.5807 113.064 22.7402C112.808 22.8952 112.533 23.0091 112.237 23.082C111.94 23.1549 111.619 23.1914 111.273 23.1914C110.279 23.1914 109.482 22.8724 108.88 22.2344C108.279 21.5918 107.978 20.7396 107.978 19.6777C107.978 18.625 108.269 17.7728 108.853 17.1211C109.441 16.4785 110.22 16.1572 111.191 16.1572C112.17 16.1572 112.945 16.4694 113.515 17.0938C114.08 17.7135 114.362 18.5726 114.362 19.6709L114.356 20.0332ZM112.777 18.7754C112.562 17.9551 112.045 17.5449 111.225 17.5449C111.038 17.5449 110.862 17.5745 110.698 17.6338C110.534 17.6885 110.384 17.7705 110.247 17.8799C110.115 17.9847 110.001 18.1123 109.905 18.2627C109.81 18.4131 109.737 18.584 109.687 18.7754H112.777ZM116.759 16.3418L118.503 20.1426L120.382 15.7334L122.276 20.1426L123.999 16.3418H125.721L122.235 23.499L120.382 19.2129L118.509 23.499L115.03 16.3418H116.759ZM136.852 13.9424H133.174V16.4785H136.722V17.9756H133.174V23H131.581V12.4453H136.852V13.9424ZM140.076 16.3418V23H138.538V16.3418H140.076ZM138.305 13.5732C138.305 13.3044 138.403 13.0719 138.599 12.876C138.795 12.68 139.03 12.582 139.304 12.582C139.582 12.582 139.818 12.68 140.014 12.876C140.21 13.0674 140.308 13.3021 140.308 13.5801C140.308 13.8581 140.21 14.0951 140.014 14.291C139.823 14.487 139.588 14.585 139.31 14.585C139.032 14.585 138.795 14.487 138.599 14.291C138.403 14.0951 138.305 13.8558 138.305 13.5732ZM142.124 16.3418H143.669V16.957C144.207 16.4238 144.813 16.1572 145.488 16.1572C146.262 16.1572 146.866 16.401 147.299 16.8887C147.673 17.3034 147.86 17.9801 147.86 18.9189V23H146.315V19.2812C146.315 18.625 146.224 18.1715 146.041 17.9209C145.863 17.6657 145.54 17.5381 145.071 17.5381C144.56 17.5381 144.198 17.7067 143.984 18.0439C143.774 18.3766 143.669 18.9577 143.669 19.7871V23H142.124V16.3418ZM154.816 16.3418H156.361V23H154.816V22.3027C154.183 22.8952 153.501 23.1914 152.772 23.1914C151.851 23.1914 151.09 22.8587 150.489 22.1934C149.892 21.5143 149.593 20.6667 149.593 19.6504C149.593 18.6523 149.892 17.8206 150.489 17.1553C151.086 16.4899 151.833 16.1572 152.731 16.1572C153.506 16.1572 154.201 16.4762 154.816 17.1143V16.3418ZM151.166 19.6504C151.166 20.2884 151.337 20.8079 151.678 21.209C152.029 21.6146 152.471 21.8174 153.004 21.8174C153.574 21.8174 154.034 21.6214 154.385 21.2295C154.736 20.8239 154.912 20.3089 154.912 19.6846C154.912 19.0602 154.736 18.5452 154.385 18.1396C154.034 17.7432 153.579 17.5449 153.018 17.5449C152.49 17.5449 152.047 17.7454 151.692 18.1465C151.341 18.5521 151.166 19.0534 151.166 19.6504ZM158.402 16.3418H159.947V16.957C160.485 16.4238 161.091 16.1572 161.766 16.1572C162.54 16.1572 163.144 16.401 163.577 16.8887C163.951 17.3034 164.138 17.9801 164.138 18.9189V23H162.593V19.2812C162.593 18.625 162.502 18.1715 162.319 17.9209C162.142 17.6657 161.818 17.5381 161.349 17.5381C160.838 17.5381 160.476 17.7067 160.262 18.0439C160.052 18.3766 159.947 18.9577 159.947 19.7871V23H158.402V16.3418ZM171.368 16.6289V18.6729C171.017 18.2445 170.702 17.9505 170.424 17.791C170.151 17.627 169.829 17.5449 169.46 17.5449C168.882 17.5449 168.401 17.7477 168.018 18.1533C167.635 18.5589 167.444 19.0671 167.444 19.6777C167.444 20.3021 167.628 20.8148 167.997 21.2158C168.371 21.6169 168.847 21.8174 169.426 21.8174C169.795 21.8174 170.121 21.7376 170.404 21.5781C170.677 21.4232 170.998 21.1224 171.368 20.6758V22.7061C170.743 23.0296 170.119 23.1914 169.495 23.1914C168.465 23.1914 167.603 22.8587 166.911 22.1934C166.218 21.5234 165.871 20.6917 165.871 19.6982C165.871 18.7048 166.222 17.8662 166.924 17.1826C167.626 16.499 168.487 16.1572 169.508 16.1572C170.164 16.1572 170.784 16.3145 171.368 16.6289ZM174.496 16.3418V23H172.958V16.3418H174.496ZM172.725 13.5732C172.725 13.3044 172.823 13.0719 173.019 12.876C173.215 12.68 173.45 12.582 173.723 12.582C174.001 12.582 174.238 12.68 174.434 12.876C174.63 13.0674 174.728 13.3021 174.728 13.5801C174.728 13.8581 174.63 14.0951 174.434 14.291C174.243 14.487 174.008 14.585 173.73 14.585C173.452 14.585 173.215 14.487 173.019 14.291C172.823 14.0951 172.725 13.8558 172.725 13.5732ZM181.452 16.3418H182.997V23H181.452V22.3027C180.819 22.8952 180.138 23.1914 179.408 23.1914C178.488 23.1914 177.727 22.8587 177.125 22.1934C176.528 21.5143 176.23 20.6667 176.23 19.6504C176.23 18.6523 176.528 17.8206 177.125 17.1553C177.722 16.4899 178.47 16.1572 179.367 16.1572C180.142 16.1572 180.837 16.4762 181.452 17.1143V16.3418ZM177.802 19.6504C177.802 20.2884 177.973 20.8079 178.315 21.209C178.666 21.6146 179.108 21.8174 179.641 21.8174C180.21 21.8174 180.671 21.6214 181.022 21.2295C181.373 20.8239 181.548 20.3089 181.548 19.6846C181.548 19.0602 181.373 18.5452 181.022 18.1396C180.671 17.7432 180.215 17.5449 179.654 17.5449C179.126 17.5449 178.684 17.7454 178.328 18.1465C177.977 18.5521 177.802 19.0534 177.802 19.6504ZM186.577 11.4541V23H185.039V11.4541H186.577ZM47.7939 34.9355H45.9688L46.8438 33.4453H49.3867V44H47.7939V34.9355ZM55.14 42.5029H59.0707V44H51.9818L55.6459 39.5635C56.0059 39.1214 56.3067 38.7386 56.5482 38.415C56.7943 38.0915 56.9812 37.8203 57.1088 37.6016C57.3686 37.1732 57.4984 36.7881 57.4984 36.4463C57.4984 35.9541 57.3253 35.5417 56.9789 35.209C56.6326 34.8763 56.2042 34.71 55.6937 34.71C54.6273 34.71 54.0167 35.3411 53.8617 36.6035H52.2758C52.531 34.3796 53.6544 33.2676 55.6459 33.2676C56.6075 33.2676 57.4141 33.5729 58.0658 34.1836C58.7221 34.7943 59.0502 35.5508 59.0502 36.4531C59.0502 37.0273 58.8975 37.5902 58.5922 38.1416C58.4372 38.4287 58.2094 38.7705 57.9086 39.167C57.6124 39.5589 57.2364 40.0238 56.7807 40.5615L55.14 42.5029ZM63.8807 42.5029H67.8113V44H60.7225L64.3865 39.5635C64.7466 39.1214 65.0473 38.7386 65.2889 38.415C65.535 38.0915 65.7218 37.8203 65.8494 37.6016C66.1092 37.1732 66.2391 36.7881 66.2391 36.4463C66.2391 35.9541 66.0659 35.5417 65.7195 35.209C65.3732 34.8763 64.9448 34.71 64.4344 34.71C63.368 34.71 62.7573 35.3411 62.6023 36.6035H61.0164C61.2716 34.3796 62.395 33.2676 64.3865 33.2676C65.3481 33.2676 66.1548 33.5729 66.8064 34.1836C67.4627 34.7943 67.7908 35.5508 67.7908 36.4531C67.7908 37.0273 67.6382 37.5902 67.3328 38.1416C67.1779 38.4287 66.95 38.7705 66.6492 39.167C66.353 39.5589 65.977 40.0238 65.5213 40.5615L63.8807 42.5029ZM71.7326 34.9355H69.9074L70.7824 33.4453H73.3254V44H71.7326V34.9355ZM82.3643 44V33.4453H83.9502C84.6566 33.4453 85.2194 33.5 85.6387 33.6094C86.0625 33.7188 86.4202 33.9033 86.7119 34.1631C87.0081 34.432 87.2428 34.7669 87.416 35.168C87.5938 35.5736 87.6826 35.9837 87.6826 36.3984C87.6826 37.1549 87.3932 37.7952 86.8145 38.3193C87.375 38.5107 87.8171 38.8457 88.1406 39.3242C88.4688 39.7982 88.6328 40.3496 88.6328 40.9785C88.6328 41.8034 88.3411 42.5007 87.7578 43.0703C87.4069 43.4212 87.0127 43.665 86.5752 43.8018C86.0967 43.9339 85.4974 44 84.7773 44H82.3643ZM83.957 37.9775H84.4561C85.0485 37.9775 85.4814 37.8477 85.7549 37.5879C86.0329 37.3236 86.1719 36.9362 86.1719 36.4258C86.1719 35.929 86.0306 35.5531 85.748 35.2979C85.4655 35.0381 85.0553 34.9082 84.5176 34.9082H83.957V37.9775ZM83.957 42.5029H84.9414C85.6615 42.5029 86.1901 42.3617 86.5273 42.0791C86.8828 41.7738 87.0605 41.3864 87.0605 40.917C87.0605 40.4613 86.8896 40.0785 86.5479 39.7686C86.2152 39.4632 85.6204 39.3105 84.7637 39.3105H83.957V42.5029ZM90.4555 37.3418H91.9936V37.9365C92.2761 37.6403 92.5268 37.4375 92.7455 37.3281C92.9688 37.2142 93.2331 37.1572 93.5385 37.1572C93.9441 37.1572 94.3679 37.2894 94.81 37.5537L94.1059 38.9619C93.8142 38.7523 93.5294 38.6475 93.2514 38.6475C92.4128 38.6475 91.9936 39.2809 91.9936 40.5479V44H90.4555V37.3418ZM95.3543 40.623C95.3543 39.6615 95.6984 38.8434 96.3865 38.1689C97.0747 37.4945 97.9132 37.1572 98.9021 37.1572C99.8956 37.1572 100.739 37.4967 101.431 38.1758C102.115 38.8548 102.457 39.6888 102.457 40.6777C102.457 41.6758 102.113 42.512 101.425 43.1865C100.732 43.8564 99.882 44.1914 98.8748 44.1914C97.8768 44.1914 97.0405 43.8496 96.366 43.166C95.6915 42.4915 95.3543 41.6439 95.3543 40.623ZM96.9266 40.6504C96.9266 41.3158 97.1043 41.8421 97.4598 42.2295C97.8243 42.6214 98.3051 42.8174 98.9021 42.8174C99.5037 42.8174 99.9845 42.6237 100.345 42.2363C100.705 41.849 100.885 41.3317 100.885 40.6846C100.885 40.0374 100.705 39.5202 100.345 39.1328C99.9799 38.7409 99.4992 38.5449 98.9021 38.5449C98.3143 38.5449 97.838 38.7409 97.4734 39.1328C97.1089 39.5247 96.9266 40.0306 96.9266 40.6504ZM109.099 37.3418H110.644V44H109.099V43.3027C108.465 43.8952 107.784 44.1914 107.055 44.1914C106.134 44.1914 105.373 43.8587 104.772 43.1934C104.175 42.5143 103.876 41.6667 103.876 40.6504C103.876 39.6523 104.175 38.8206 104.772 38.1553C105.369 37.4899 106.116 37.1572 107.014 37.1572C107.789 37.1572 108.484 37.4762 109.099 38.1143V37.3418ZM105.448 40.6504C105.448 41.2884 105.619 41.8079 105.961 42.209C106.312 42.6146 106.754 42.8174 107.287 42.8174C107.857 42.8174 108.317 42.6214 108.668 42.2295C109.019 41.8239 109.195 41.3089 109.195 40.6846C109.195 40.0602 109.019 39.5452 108.668 39.1396C108.317 38.7432 107.862 38.5449 107.301 38.5449C106.772 38.5449 106.33 38.7454 105.975 39.1465C105.624 39.5521 105.448 40.0534 105.448 40.6504ZM117.593 32.4541H119.138V44H117.593V43.3027C116.987 43.8952 116.301 44.1914 115.536 44.1914C114.624 44.1914 113.868 43.8587 113.266 43.1934C112.669 42.5143 112.371 41.6667 112.371 40.6504C112.371 39.6569 112.669 38.8275 113.266 38.1621C113.859 37.4922 114.604 37.1572 115.502 37.1572C116.281 37.1572 116.978 37.4762 117.593 38.1143V32.4541ZM113.943 40.6504C113.943 41.2884 114.114 41.8079 114.456 42.209C114.807 42.6146 115.249 42.8174 115.782 42.8174C116.351 42.8174 116.812 42.6214 117.163 42.2295C117.514 41.8239 117.689 41.3089 117.689 40.6846C117.689 40.0602 117.514 39.5452 117.163 39.1396C116.812 38.7432 116.356 38.5449 115.796 38.5449C115.267 38.5449 114.825 38.7454 114.469 39.1465C114.118 39.5521 113.943 40.0534 113.943 40.6504ZM122.014 37.3418L123.757 41.1426L125.637 36.7334L127.53 41.1426L129.253 37.3418H130.976L127.489 44.499L125.637 40.2129L123.764 44.499L120.284 37.3418H122.014ZM136.797 37.3418H138.342V44H136.797V43.3027C136.164 43.8952 135.482 44.1914 134.753 44.1914C133.833 44.1914 133.072 43.8587 132.47 43.1934C131.873 42.5143 131.575 41.6667 131.575 40.6504C131.575 39.6523 131.873 38.8206 132.47 38.1553C133.067 37.4899 133.815 37.1572 134.712 37.1572C135.487 37.1572 136.182 37.4762 136.797 38.1143V37.3418ZM133.147 40.6504C133.147 41.2884 133.318 41.8079 133.66 42.209C134.01 42.6146 134.453 42.8174 134.986 42.8174C135.555 42.8174 136.016 42.6214 136.367 42.2295C136.718 41.8239 136.893 41.3089 136.893 40.6846C136.893 40.0602 136.718 39.5452 136.367 39.1396C136.016 38.7432 135.56 38.5449 134.999 38.5449C134.471 38.5449 134.029 38.7454 133.673 39.1465C133.322 39.5521 133.147 40.0534 133.147 40.6504ZM142.605 42.7627L139.611 37.3418H141.395L143.432 41.1699L145.333 37.3418H147.069L141.764 47.623H140.008L142.605 42.7627ZM148.571 42.0244L149.938 42.5576L147.989 46.4609L146.95 46.0303L148.571 42.0244ZM162.395 41.0537H163.516V42.5029H162.395V44H160.802V42.5029H155.62L162.395 32.6592V41.0537ZM160.802 41.0537V37.5195L158.368 41.0537H160.802ZM166.787 38.7773V44H165.249V38.7773H164.593V37.3418H165.249V34.9014H166.787V37.3418H167.984V38.7773H166.787ZM169.417 32.4541H170.955V37.8955C171.502 37.4033 172.106 37.1572 172.766 37.1572C173.518 37.1572 174.12 37.401 174.571 37.8887C174.954 38.3125 175.145 38.9893 175.145 39.9189V44H173.607V40.0625C173.607 39.5293 173.512 39.1442 173.32 38.9072C173.133 38.6657 172.83 38.5449 172.411 38.5449C171.873 38.5449 171.495 38.7113 171.276 39.0439C171.062 39.3812 170.955 39.96 170.955 40.7803V44H169.417V32.4541ZM187.103 44H185.565V34.9629C185.565 34.6257 185.451 34.3294 185.223 34.0742C184.995 33.8145 184.715 33.6846 184.382 33.6846C184.05 33.6846 183.769 33.8122 183.542 34.0674C183.318 34.318 183.207 34.6165 183.207 34.9629V37.3418H184.97V38.7773H183.207V44H181.669V38.7773H181.122V37.3418H181.669V34.9629C181.669 34.2155 181.935 33.5775 182.468 33.0488C183.002 32.5156 183.642 32.249 184.389 32.249C185.137 32.249 185.775 32.5156 186.303 33.0488C186.837 33.5775 187.103 34.2155 187.103 34.9629V44ZM188.844 40.623C188.844 39.6615 189.188 38.8434 189.876 38.1689C190.564 37.4945 191.403 37.1572 192.392 37.1572C193.385 37.1572 194.228 37.4967 194.921 38.1758C195.604 38.8548 195.946 39.6888 195.946 40.6777C195.946 41.6758 195.602 42.512 194.914 43.1865C194.221 43.8564 193.371 44.1914 192.364 44.1914C191.366 44.1914 190.53 43.8496 189.855 43.166C189.181 42.4915 188.844 41.6439 188.844 40.623ZM190.416 40.6504C190.416 41.3158 190.594 41.8421 190.949 42.2295C191.314 42.6214 191.795 42.8174 192.392 42.8174C192.993 42.8174 193.474 42.6237 193.834 42.2363C194.194 41.849 194.374 41.3317 194.374 40.6846C194.374 40.0374 194.194 39.5202 193.834 39.1328C193.469 38.7409 192.989 38.5449 192.392 38.5449C191.804 38.5449 191.327 38.7409 190.963 39.1328C190.598 39.5247 190.416 40.0306 190.416 40.6504ZM197.366 40.623C197.366 39.6615 197.71 38.8434 198.398 38.1689C199.086 37.4945 199.925 37.1572 200.913 37.1572C201.907 37.1572 202.75 37.4967 203.443 38.1758C204.126 38.8548 204.468 39.6888 204.468 40.6777C204.468 41.6758 204.124 42.512 203.436 43.1865C202.743 43.8564 201.893 44.1914 200.886 44.1914C199.888 44.1914 199.052 43.8496 198.377 43.166C197.703 42.4915 197.366 41.6439 197.366 40.623ZM198.938 40.6504C198.938 41.3158 199.116 41.8421 199.471 42.2295C199.836 42.6214 200.316 42.8174 200.913 42.8174C201.515 42.8174 201.996 42.6237 202.356 42.2363C202.716 41.849 202.896 41.3317 202.896 40.6846C202.896 40.0374 202.716 39.5202 202.356 39.1328C201.991 38.7409 201.51 38.5449 200.913 38.5449C200.326 38.5449 199.849 38.7409 199.485 39.1328C199.12 39.5247 198.938 40.0306 198.938 40.6504ZM206.202 37.3418H207.74V37.9365C208.023 37.6403 208.273 37.4375 208.492 37.3281C208.715 37.2142 208.98 37.1572 209.285 37.1572C209.691 37.1572 210.114 37.2894 210.556 37.5537L209.852 38.9619C209.561 38.7523 209.276 38.6475 208.998 38.6475C208.159 38.6475 207.74 39.2809 207.74 40.5479V44H206.202V37.3418ZM44.7383 59.6748C44.7383 58.1891 45.2829 56.9131 46.3721 55.8467C47.4567 54.7803 48.7601 54.2471 50.2822 54.2471C51.7861 54.2471 53.0758 54.7848 54.1514 55.8604C55.2314 56.9359 55.7715 58.2279 55.7715 59.7363C55.7715 61.2539 55.2292 62.5413 54.1445 63.5986C53.0553 64.6605 51.7406 65.1914 50.2002 65.1914C48.8376 65.1914 47.6139 64.7197 46.5293 63.7764C45.3353 62.7327 44.7383 61.3656 44.7383 59.6748ZM46.3447 59.6953C46.3447 60.862 46.7367 61.8213 47.5205 62.5732C48.2998 63.3252 49.1999 63.7012 50.2207 63.7012C51.3281 63.7012 52.2624 63.3184 53.0234 62.5527C53.7845 61.778 54.165 60.8346 54.165 59.7227C54.165 58.597 53.7891 57.6536 53.0371 56.8926C52.2897 56.127 51.3646 55.7441 50.2617 55.7441C49.1634 55.7441 48.236 56.127 47.4795 56.8926C46.723 57.6491 46.3447 58.5833 46.3447 59.6953ZM62.4887 58.3418H64.0336V65H62.4887V64.3027C61.8552 64.8952 61.1739 65.1914 60.4447 65.1914C59.5242 65.1914 58.7631 64.8587 58.1615 64.1934C57.5645 63.5143 57.266 62.6667 57.266 61.6504C57.266 60.6523 57.5645 59.8206 58.1615 59.1553C58.7585 58.4899 59.5059 58.1572 60.4037 58.1572C61.1785 58.1572 61.8734 58.4762 62.4887 59.1143V58.3418ZM58.8383 61.6504C58.8383 62.2884 59.0092 62.8079 59.351 63.209C59.7019 63.6146 60.1439 63.8174 60.6771 63.8174C61.2468 63.8174 61.7071 63.6214 62.058 63.2295C62.4089 62.8239 62.5844 62.3089 62.5844 61.6846C62.5844 61.0602 62.4089 60.5452 62.058 60.1396C61.7071 59.7432 61.2514 59.5449 60.6908 59.5449C60.1622 59.5449 59.7201 59.7454 59.3646 60.1465C59.0137 60.5521 58.8383 61.0534 58.8383 61.6504ZM67.6131 53.4541V60.4951L69.7801 58.3418H71.8445L68.9529 61.1377L72.0564 65H70.0604L67.8592 62.1904L67.6131 62.4365V65H66.075V53.4541H67.6131ZM74.6857 53.4541V65H73.1477V53.4541H74.6857ZM81.6422 58.3418H83.1871V65H81.6422V64.3027C81.0087 64.8952 80.3274 65.1914 79.5982 65.1914C78.6777 65.1914 77.9166 64.8587 77.315 64.1934C76.718 63.5143 76.4195 62.6667 76.4195 61.6504C76.4195 60.6523 76.718 59.8206 77.315 59.1553C77.912 58.4899 78.6594 58.1572 79.5572 58.1572C80.332 58.1572 81.027 58.4762 81.6422 59.1143V58.3418ZM77.9918 61.6504C77.9918 62.2884 78.1627 62.8079 78.5045 63.209C78.8554 63.6146 79.2975 63.8174 79.8307 63.8174C80.4003 63.8174 80.8606 63.6214 81.2115 63.2295C81.5624 62.8239 81.7379 62.3089 81.7379 61.6846C81.7379 61.0602 81.5624 60.5452 81.2115 60.1396C80.8606 59.7432 80.4049 59.5449 79.8443 59.5449C79.3157 59.5449 78.8736 59.7454 78.5182 60.1465C78.1673 60.5521 77.9918 61.0534 77.9918 61.6504ZM85.2285 58.3418H86.7734V58.957C87.3112 58.4238 87.9173 58.1572 88.5918 58.1572C89.3665 58.1572 89.9704 58.401 90.4033 58.8887C90.777 59.3034 90.9639 59.9801 90.9639 60.9189V65H89.4189V61.2812C89.4189 60.625 89.3278 60.1715 89.1455 59.9209C88.9678 59.6657 88.6442 59.5381 88.1748 59.5381C87.6644 59.5381 87.3021 59.7067 87.0879 60.0439C86.8783 60.3766 86.7734 60.9577 86.7734 61.7871V65H85.2285V58.3418ZM97.9203 53.4541H99.4652V65H97.9203V64.3027C97.3142 64.8952 96.6283 65.1914 95.8627 65.1914C94.9512 65.1914 94.1947 64.8587 93.5932 64.1934C92.9962 63.5143 92.6977 62.6667 92.6977 61.6504C92.6977 60.6569 92.9962 59.8275 93.5932 59.1621C94.1856 58.4922 94.9307 58.1572 95.8285 58.1572C96.6078 58.1572 97.3051 58.4762 97.9203 59.1143V53.4541ZM94.2699 61.6504C94.2699 62.2884 94.4408 62.8079 94.7826 63.209C95.1335 63.6146 95.5756 63.8174 96.1088 63.8174C96.6784 63.8174 97.1387 63.6214 97.4896 63.2295C97.8406 62.8239 98.016 62.3089 98.016 61.6846C98.016 61.0602 97.8406 60.5452 97.4896 60.1396C97.1387 59.7432 96.683 59.5449 96.1225 59.5449C95.5938 59.5449 95.1518 59.7454 94.7963 60.1465C94.4454 60.5521 94.2699 61.0534 94.2699 61.6504ZM102.457 63.0244L103.824 63.5576L101.876 67.4609L100.837 67.0303L102.457 63.0244ZM118.441 55.0127V56.8994C117.52 56.1292 116.568 55.7441 115.584 55.7441C114.499 55.7441 113.585 56.1338 112.842 56.9131C112.095 57.6878 111.721 58.6357 111.721 59.7568C111.721 60.8643 112.095 61.7985 112.842 62.5596C113.59 63.3206 114.506 63.7012 115.59 63.7012C116.151 63.7012 116.627 63.61 117.019 63.4277C117.238 63.3366 117.463 63.2135 117.696 63.0586C117.933 62.9036 118.181 62.7168 118.441 62.498V64.4189C117.53 64.9339 116.573 65.1914 115.57 65.1914C114.061 65.1914 112.774 64.665 111.708 63.6123C110.646 62.5505 110.115 61.2699 110.115 59.7705C110.115 58.4261 110.559 57.2275 111.448 56.1748C112.542 54.8851 113.957 54.2402 115.693 54.2402C116.641 54.2402 117.557 54.4977 118.441 55.0127ZM127.018 62.4365H122.499L121.323 65H119.607L124.83 53.7822L129.868 65H128.125L127.018 62.4365ZM126.368 60.9395L124.803 57.3506L123.162 60.9395H126.368ZM137.595 65.3623L136.426 64.4941L138.948 61.0557C138.811 61.0739 138.695 61.0876 138.599 61.0967C138.504 61.1058 138.426 61.1104 138.367 61.1104C137.515 61.1104 136.776 60.7845 136.152 60.1328C135.532 59.4857 135.222 58.7064 135.222 57.7949C135.222 56.8242 135.567 55.9948 136.255 55.3066C136.947 54.6139 137.777 54.2676 138.743 54.2676C139.705 54.2676 140.541 54.6094 141.252 55.293C141.963 55.972 142.318 56.7741 142.318 57.6992C142.318 58.5195 141.972 59.4059 141.279 60.3584L137.595 65.3623ZM136.774 57.6787C136.774 58.2484 136.968 58.7269 137.355 59.1143C137.747 59.5062 138.219 59.7021 138.77 59.7021C139.322 59.7021 139.791 59.5085 140.179 59.1211C140.57 58.7292 140.766 58.2575 140.766 57.7061C140.766 57.1546 140.57 56.6829 140.179 56.291C139.791 55.9036 139.319 55.71 138.763 55.71C138.217 55.71 137.749 55.9036 137.362 56.291C136.97 56.6829 136.774 57.1455 136.774 57.6787ZM148.892 62.0537H150.013V63.5029H148.892V65H147.299V63.5029H142.117L148.892 53.6592V62.0537ZM147.299 62.0537V58.5195L144.865 62.0537H147.299ZM156.224 54.0762L157.393 54.9512L154.871 58.3828C155.007 58.3646 155.124 58.3509 155.219 58.3418C155.315 58.3327 155.39 58.3281 155.445 58.3281C156.302 58.3281 157.042 58.6562 157.667 59.3125C158.286 59.9596 158.596 60.7389 158.596 61.6504C158.596 62.6165 158.25 63.446 157.557 64.1387C156.869 64.8268 156.042 65.1709 155.076 65.1709C154.119 65.1709 153.28 64.8314 152.56 64.1523C151.854 63.4733 151.501 62.6689 151.501 61.7393C151.501 60.9053 151.845 60.0212 152.533 59.0869L156.224 54.0762ZM157.045 61.7529C157.045 61.1924 156.851 60.7184 156.463 60.3311C156.072 59.9391 155.6 59.7432 155.048 59.7432C154.492 59.7432 154.021 59.9368 153.633 60.3242C153.246 60.7116 153.052 61.181 153.052 61.7324C153.052 62.2839 153.246 62.7533 153.633 63.1406C154.021 63.528 154.495 63.7217 155.055 63.7217C155.602 63.7217 156.069 63.528 156.457 63.1406C156.849 62.7487 157.045 62.2861 157.045 61.7529ZM161.868 55.9355H160.043L160.918 54.4453H163.461V65H161.868V55.9355ZM169.214 63.5029H173.145V65H166.056L169.72 60.5635C170.08 60.1214 170.381 59.7386 170.622 59.415C170.869 59.0915 171.055 58.8203 171.183 58.6016C171.443 58.1732 171.573 57.7881 171.573 57.4463C171.573 56.9541 171.399 56.5417 171.053 56.209C170.707 55.8763 170.278 55.71 169.768 55.71C168.702 55.71 168.091 56.3411 167.936 57.6035H166.35C166.605 55.3796 167.729 54.2676 169.72 54.2676C170.682 54.2676 171.488 54.5729 172.14 55.1836C172.796 55.7943 173.124 56.5508 173.124 57.4531C173.124 58.0273 172.972 58.5902 172.666 59.1416C172.511 59.4287 172.284 59.7705 171.983 60.167C171.687 60.5589 171.311 61.0238 170.855 61.5615L169.214 63.5029Z" fill="#353535"/>
<path d="M22.0645 13.0127V14.8994C21.1439 14.1292 20.1914 13.7441 19.207 13.7441C18.1224 13.7441 17.2087 14.1338 16.4658 14.9131C15.7184 15.6878 15.3447 16.6357 15.3447 17.7568C15.3447 18.8643 15.7184 19.7985 16.4658 20.5596C17.2132 21.3206 18.1292 21.7012 19.2139 21.7012C19.7744 21.7012 20.2507 21.61 20.6426 21.4277C20.8613 21.3366 21.0869 21.2135 21.3193 21.0586C21.5563 20.9036 21.8047 20.7168 22.0645 20.498V22.4189C21.153 22.9339 20.196 23.1914 19.1934 23.1914C17.6849 23.1914 16.3975 22.665 15.3311 21.6123C14.2692 20.5505 13.7383 19.2699 13.7383 17.7705C13.7383 16.4261 14.1826 15.2275 15.0713 14.1748C16.165 12.8851 17.5801 12.2402 19.3164 12.2402C20.2643 12.2402 21.1803 12.4977 22.0645 13.0127Z" fill="black"/>
<circle cx="18" cy="18" r="17" stroke="black" stroke-width="2"/>
</svg>
