<svg width="364" height="25" viewBox="0 0 364 25" fill="none" xmlns="http://www.w3.org/2000/svg">
<path d="M27.2544 13.0376H29.7812V14H25.2241L27.5796 11.1479C27.811 10.8638 28.0044 10.6177 28.1597 10.4097C28.3179 10.2017 28.438 10.0273 28.52 9.88672C28.687 9.61133 28.7705 9.36377 28.7705 9.14404C28.7705 8.82764 28.6592 8.5625 28.4365 8.34863C28.2139 8.13477 27.9385 8.02783 27.6104 8.02783C26.9248 8.02783 26.5322 8.43359 26.4326 9.24512H25.4131C25.5771 7.81543 26.2993 7.10059 27.5796 7.10059C28.1978 7.10059 28.7163 7.29688 29.1353 7.68945C29.5571 8.08203 29.7681 8.56836 29.7681 9.14844C29.7681 9.51758 29.6699 9.87939 29.4736 10.2339C29.374 10.4185 29.2275 10.6382 29.0342 10.8931C28.8438 11.145 28.6021 11.4438 28.3091 11.7896L27.2544 13.0376ZM31.037 10.5635C31.037 9.48242 31.289 8.61963 31.7929 7.9751C32.244 7.39209 32.7904 7.10059 33.432 7.10059C34.0736 7.10059 34.62 7.39209 35.0712 7.9751C35.5751 8.61963 35.8271 9.49707 35.8271 10.6074C35.8271 11.7148 35.5751 12.5908 35.0712 13.2354C34.62 13.8184 34.0751 14.1099 33.4364 14.1099C32.7978 14.1099 32.2499 13.8184 31.7929 13.2354C31.289 12.5908 31.037 11.7002 31.037 10.5635ZM32.0434 10.5679C32.0434 11.3208 32.1737 11.9463 32.4345 12.4443C32.6952 12.9336 33.0277 13.1782 33.432 13.1782C33.8334 13.1782 34.1659 12.9336 34.4296 12.4443C34.6933 11.958 34.8251 11.3442 34.8251 10.603C34.8251 9.86182 34.6933 9.24658 34.4296 8.75732C34.1659 8.271 33.8334 8.02783 33.432 8.02783C33.0336 8.02783 32.7025 8.271 32.4389 8.75732C32.1752 9.24072 32.0434 9.84424 32.0434 10.5679ZM38.5638 13.0376H41.0906V14H36.5335L38.889 11.1479C39.1204 10.8638 39.3138 10.6177 39.469 10.4097C39.6272 10.2017 39.7474 10.0273 39.8294 9.88672C39.9964 9.61133 40.0799 9.36377 40.0799 9.14404C40.0799 8.82764 39.9686 8.5625 39.7459 8.34863C39.5232 8.13477 39.2479 8.02783 38.9197 8.02783C38.2342 8.02783 37.8416 8.43359 37.742 9.24512H36.7225C36.8865 7.81543 37.6087 7.10059 38.889 7.10059C39.5071 7.10059 40.0257 7.29688 40.4446 7.68945C40.8665 8.08203 41.0774 8.56836 41.0774 9.14844C41.0774 9.51758 40.9793 9.87939 40.783 10.2339C40.6834 10.4185 40.5369 10.6382 40.3436 10.8931C40.1531 11.145 39.9114 11.4438 39.6185 11.7896L38.5638 13.0376ZM42.3464 10.5635C42.3464 9.48242 42.5983 8.61963 43.1022 7.9751C43.5534 7.39209 44.0998 7.10059 44.7414 7.10059C45.383 7.10059 45.9294 7.39209 46.3806 7.9751C46.8845 8.61963 47.1364 9.49707 47.1364 10.6074C47.1364 11.7148 46.8845 12.5908 46.3806 13.2354C45.9294 13.8184 45.3845 14.1099 44.7458 14.1099C44.1071 14.1099 43.5593 13.8184 43.1022 13.2354C42.5983 12.5908 42.3464 11.7002 42.3464 10.5635ZM43.3527 10.5679C43.3527 11.3208 43.4831 11.9463 43.7438 12.4443C44.0046 12.9336 44.3371 13.1782 44.7414 13.1782C45.1428 13.1782 45.4753 12.9336 45.739 12.4443C46.0026 11.958 46.1345 11.3442 46.1345 10.603C46.1345 9.86182 46.0026 9.24658 45.739 8.75732C45.4753 8.271 45.1428 8.02783 44.7414 8.02783C44.343 8.02783 44.0119 8.271 43.7482 8.75732C43.4846 9.24072 43.3527 9.84424 43.3527 10.5679ZM53.6074 11.1084L55.708 14H54.4556L52.5176 11.2227H52.333V14H51.3091V7.21484H52.5088C53.4053 7.21484 54.0527 7.3833 54.4512 7.72021C54.8906 8.09521 55.1104 8.59033 55.1104 9.20557C55.1104 9.68604 54.9727 10.0991 54.6973 10.4448C54.4219 10.7905 54.0586 11.0117 53.6074 11.1084ZM52.333 10.3306H52.6582C53.6279 10.3306 54.1128 9.95996 54.1128 9.21875C54.1128 8.52441 53.6411 8.17725 52.6978 8.17725H52.333V10.3306ZM60.3915 12.0928H57.3241C57.3505 12.4443 57.4647 12.7241 57.6669 12.9321C57.869 13.1372 58.1283 13.2397 58.4447 13.2397C58.6908 13.2397 58.8944 13.1812 59.0556 13.064C59.2138 12.9468 59.3939 12.73 59.5961 12.4136L60.4311 12.8794C60.3021 13.0991 60.1659 13.2881 60.0224 13.4463C59.8788 13.6016 59.725 13.7305 59.5609 13.833C59.3969 13.9326 59.2196 14.0059 59.0292 14.0527C58.8388 14.0996 58.6322 14.123 58.4096 14.123C57.7709 14.123 57.2582 13.918 56.8715 13.5078C56.4848 13.0947 56.2914 12.5469 56.2914 11.8643C56.2914 11.1875 56.4789 10.6396 56.8539 10.2207C57.2318 9.80762 57.7328 9.60107 58.3568 9.60107C58.9867 9.60107 59.4848 9.80176 59.851 10.2031C60.2143 10.6016 60.3959 11.1538 60.3959 11.8599L60.3915 12.0928ZM59.3764 11.2842C59.2387 10.7568 58.9062 10.4932 58.3788 10.4932C58.2587 10.4932 58.1459 10.5122 58.0404 10.5503C57.935 10.5854 57.8383 10.6382 57.7504 10.7085C57.6654 10.7759 57.5922 10.8579 57.5307 10.9546C57.4691 11.0513 57.4223 11.1611 57.39 11.2842H59.3764ZM61.577 9.71973H62.5701V10.1152C62.9158 9.77246 63.3055 9.60107 63.7391 9.60107C64.2371 9.60107 64.6253 9.75781 64.9036 10.0713C65.1438 10.3379 65.264 10.7729 65.264 11.3765V14H64.2708V11.6094C64.2708 11.1875 64.2122 10.896 64.095 10.7349C63.9808 10.5708 63.7728 10.4888 63.471 10.4888C63.1429 10.4888 62.91 10.5972 62.7723 10.814C62.6375 11.0278 62.5701 11.4014 62.5701 11.9346V14H61.577V9.71973ZM70.5144 12.0928H67.447C67.4733 12.4443 67.5876 12.7241 67.7897 12.9321C67.9919 13.1372 68.2512 13.2397 68.5676 13.2397C68.8137 13.2397 69.0173 13.1812 69.1784 13.064C69.3366 12.9468 69.5168 12.73 69.7189 12.4136L70.5539 12.8794C70.425 13.0991 70.2888 13.2881 70.1452 13.4463C70.0017 13.6016 69.8479 13.7305 69.6838 13.833C69.5197 13.9326 69.3425 14.0059 69.1521 14.0527C68.9616 14.0996 68.7551 14.123 68.5324 14.123C67.8937 14.123 67.3811 13.918 66.9943 13.5078C66.6076 13.0947 66.4143 12.5469 66.4143 11.8643C66.4143 11.1875 66.6018 10.6396 66.9768 10.2207C67.3547 9.80762 67.8557 9.60107 68.4797 9.60107C69.1096 9.60107 69.6076 9.80176 69.9738 10.2031C70.3371 10.6016 70.5187 11.1538 70.5187 11.8599L70.5144 12.0928ZM69.4992 11.2842C69.3615 10.7568 69.029 10.4932 68.5017 10.4932C68.3815 10.4932 68.2687 10.5122 68.1633 10.5503C68.0578 10.5854 67.9611 10.6382 67.8732 10.7085C67.7883 10.7759 67.715 10.8579 67.6535 10.9546C67.592 11.0513 67.5451 11.1611 67.5129 11.2842H69.4992ZM72.0953 9.71973L73.2159 12.1631L74.4244 9.32861L75.6417 12.1631L76.7491 9.71973H77.8565L75.6153 14.3208L74.4244 11.5654L73.2203 14.3208L70.9835 9.71973H72.0953ZM85.0834 8.17725H82.7191V9.80762H84.9999V10.77H82.7191V14H81.6952V7.21484H85.0834V8.17725ZM87.1917 9.71973V14H86.2029V9.71973H87.1917ZM86.0535 7.93994C86.0535 7.76709 86.1165 7.61768 86.2425 7.4917C86.3685 7.36572 86.5193 7.30273 86.6951 7.30273C86.8738 7.30273 87.0262 7.36572 87.1521 7.4917C87.2781 7.61475 87.3411 7.76562 87.3411 7.94434C87.3411 8.12305 87.2781 8.27539 87.1521 8.40137C87.0291 8.52734 86.8782 8.59033 86.6995 8.59033C86.5208 8.59033 86.3685 8.52734 86.2425 8.40137C86.1165 8.27539 86.0535 8.12158 86.0535 7.93994ZM88.5441 9.71973H89.5373V10.1152C89.883 9.77246 90.2727 9.60107 90.7062 9.60107C91.2043 9.60107 91.5925 9.75781 91.8708 10.0713C92.111 10.3379 92.2312 10.7729 92.2312 11.3765V14H91.238V11.6094C91.238 11.1875 91.1794 10.896 91.0622 10.7349C90.9479 10.5708 90.7399 10.4888 90.4382 10.4888C90.1101 10.4888 89.8771 10.5972 89.7395 10.814C89.6047 11.0278 89.5373 11.4014 89.5373 11.9346V14H88.5441V9.71973ZM96.7389 9.71973H97.732V14H96.7389V13.5518C96.3316 13.9326 95.8937 14.123 95.4249 14.123C94.8331 14.123 94.3438 13.9092 93.9571 13.4814C93.5733 13.0449 93.3814 12.5 93.3814 11.8467C93.3814 11.2051 93.5733 10.6704 93.9571 10.2427C94.3409 9.81494 94.8214 9.60107 95.3985 9.60107C95.8966 9.60107 96.3434 9.80615 96.7389 10.2163V9.71973ZM94.3922 11.8467C94.3922 12.2568 94.5021 12.5908 94.7218 12.8486C94.9474 13.1094 95.2315 13.2397 95.5743 13.2397C95.9405 13.2397 96.2364 13.1138 96.462 12.8618C96.6876 12.6011 96.8004 12.27 96.8004 11.8687C96.8004 11.4673 96.6876 11.1362 96.462 10.8755C96.2364 10.6206 95.9435 10.4932 95.5831 10.4932C95.2433 10.4932 94.9591 10.6221 94.7306 10.8799C94.505 11.1406 94.3922 11.4629 94.3922 11.8467ZM99.0801 9.71973H100.073V10.1152C100.419 9.77246 100.809 9.60107 101.242 9.60107C101.74 9.60107 102.128 9.75781 102.407 10.0713C102.647 10.3379 102.767 10.7729 102.767 11.3765V14H101.774V11.6094C101.774 11.1875 101.715 10.896 101.598 10.7349C101.484 10.5708 101.276 10.4888 100.974 10.4888C100.646 10.4888 100.413 10.5972 100.275 10.814C100.141 11.0278 100.073 11.4014 100.073 11.9346V14H99.0801V9.71973ZM107.451 9.9043V11.2183C107.225 10.9429 107.023 10.7539 106.844 10.6514C106.668 10.5459 106.462 10.4932 106.225 10.4932C105.852 10.4932 105.543 10.6235 105.297 10.8843C105.051 11.145 104.928 11.4717 104.928 11.8643C104.928 12.2656 105.047 12.5952 105.284 12.853C105.524 13.1108 105.83 13.2397 106.203 13.2397C106.44 13.2397 106.649 13.1885 106.831 13.0859C107.007 12.9863 107.213 12.793 107.451 12.5059V13.811C107.049 14.019 106.648 14.123 106.246 14.123C105.584 14.123 105.031 13.9092 104.585 13.4814C104.14 13.0508 103.917 12.5161 103.917 11.8774C103.917 11.2388 104.143 10.6997 104.594 10.2603C105.045 9.8208 105.599 9.60107 106.255 9.60107C106.677 9.60107 107.076 9.70215 107.451 9.9043ZM109.497 9.71973V14H108.509V9.71973H109.497ZM108.359 7.93994C108.359 7.76709 108.422 7.61768 108.548 7.4917C108.674 7.36572 108.825 7.30273 109.001 7.30273C109.179 7.30273 109.332 7.36572 109.458 7.4917C109.584 7.61475 109.647 7.76562 109.647 7.94434C109.647 8.12305 109.584 8.27539 109.458 8.40137C109.335 8.52734 109.184 8.59033 109.005 8.59033C108.826 8.59033 108.674 8.52734 108.548 8.40137C108.422 8.27539 108.359 8.12158 108.359 7.93994ZM114.005 9.71973H114.998V14H114.005V13.5518C113.598 13.9326 113.16 14.123 112.691 14.123C112.099 14.123 111.61 13.9092 111.223 13.4814C110.84 13.0449 110.648 12.5 110.648 11.8467C110.648 11.2051 110.84 10.6704 111.223 10.2427C111.607 9.81494 112.088 9.60107 112.665 9.60107C113.163 9.60107 113.61 9.80615 114.005 10.2163V9.71973ZM111.658 11.8467C111.658 12.2568 111.768 12.5908 111.988 12.8486C112.214 13.1094 112.498 13.2397 112.841 13.2397C113.207 13.2397 113.503 13.1138 113.728 12.8618C113.954 12.6011 114.067 12.27 114.067 11.8687C114.067 11.4673 113.954 11.1362 113.728 10.8755C113.503 10.6206 113.21 10.4932 112.849 10.4932C112.509 10.4932 112.225 10.6221 111.997 10.8799C111.771 11.1406 111.658 11.4629 111.658 11.8467ZM117.335 6.57764V14H116.346V6.57764H117.335ZM119.298 12.73L120.177 13.0728L118.925 15.582L118.257 15.3052L119.298 12.73ZM126.257 8.17285H125.084L125.646 7.21484H127.281V14H126.257V8.17285ZM131.015 13.0376H133.542V14H128.985L131.341 11.1479C131.572 10.8638 131.765 10.6177 131.921 10.4097C132.079 10.2017 132.199 10.0273 132.281 9.88672C132.448 9.61133 132.531 9.36377 132.531 9.14404C132.531 8.82764 132.42 8.5625 132.197 8.34863C131.975 8.13477 131.699 8.02783 131.371 8.02783C130.686 8.02783 130.293 8.43359 130.194 9.24512H129.174C129.338 7.81543 130.06 7.10059 131.341 7.10059C131.959 7.10059 132.477 7.29688 132.896 7.68945C133.318 8.08203 133.529 8.56836 133.529 9.14844C133.529 9.51758 133.431 9.87939 133.235 10.2339C133.135 10.4185 132.988 10.6382 132.795 10.8931C132.605 11.145 132.363 11.4438 132.07 11.7896L131.015 13.0376ZM136.67 13.0376H139.197V14H134.64L136.995 11.1479C137.227 10.8638 137.42 10.6177 137.575 10.4097C137.733 10.2017 137.854 10.0273 137.936 9.88672C138.103 9.61133 138.186 9.36377 138.186 9.14404C138.186 8.82764 138.075 8.5625 137.852 8.34863C137.629 8.13477 137.354 8.02783 137.026 8.02783C136.34 8.02783 135.948 8.43359 135.848 9.24512H134.829C134.993 7.81543 135.715 7.10059 136.995 7.10059C137.613 7.10059 138.132 7.29688 138.551 7.68945C138.973 8.08203 139.184 8.56836 139.184 9.14844C139.184 9.51758 139.086 9.87939 138.889 10.2339C138.79 10.4185 138.643 10.6382 138.45 10.8931C138.259 11.145 138.018 11.4438 137.725 11.7896L136.67 13.0376ZM141.753 8.17285H140.58L141.143 7.21484H142.777V14H141.753V8.17285ZM148.659 14V7.21484H149.679C150.133 7.21484 150.495 7.25 150.764 7.32031C151.037 7.39062 151.267 7.50928 151.454 7.67627C151.645 7.84912 151.796 8.06445 151.907 8.32227C152.021 8.58301 152.078 8.84668 152.078 9.11328C152.078 9.59961 151.892 10.0112 151.52 10.3481C151.881 10.4712 152.165 10.6865 152.373 10.9941C152.584 11.2988 152.689 11.6533 152.689 12.0576C152.689 12.5879 152.502 13.0361 152.127 13.4023C151.901 13.6279 151.648 13.7847 151.367 13.8726C151.059 13.9575 150.674 14 150.211 14H148.659ZM149.683 10.1284H150.004C150.385 10.1284 150.663 10.0449 150.839 9.87793C151.018 9.70801 151.107 9.45898 151.107 9.13086C151.107 8.81152 151.016 8.56982 150.835 8.40576C150.653 8.23877 150.389 8.15527 150.044 8.15527H149.683V10.1284ZM149.683 13.0376H150.316C150.779 13.0376 151.119 12.9468 151.336 12.7651C151.564 12.5688 151.679 12.3198 151.679 12.0181C151.679 11.7251 151.569 11.479 151.349 11.2798C151.135 11.0835 150.753 10.9854 150.202 10.9854H149.683V13.0376ZM153.897 9.71973H154.885V10.1021C155.067 9.91162 155.228 9.78125 155.369 9.71094C155.512 9.6377 155.682 9.60107 155.879 9.60107C156.139 9.60107 156.412 9.68604 156.696 9.85596L156.243 10.7612C156.056 10.6265 155.873 10.5591 155.694 10.5591C155.155 10.5591 154.885 10.9663 154.885 11.7808V14H153.897V9.71973ZM157.082 11.8291C157.082 11.2109 157.303 10.6851 157.745 10.2515C158.188 9.81787 158.727 9.60107 159.362 9.60107C160.001 9.60107 160.543 9.81934 160.988 10.2559C161.428 10.6924 161.648 11.2285 161.648 11.8643C161.648 12.5059 161.426 13.0435 160.984 13.4771C160.539 13.9077 159.992 14.123 159.345 14.123C158.703 14.123 158.166 13.9033 157.732 13.4639C157.298 13.0303 157.082 12.4854 157.082 11.8291ZM158.092 11.8467C158.092 12.2744 158.207 12.6128 158.435 12.8618C158.67 13.1138 158.979 13.2397 159.362 13.2397C159.749 13.2397 160.058 13.1152 160.29 12.8662C160.521 12.6172 160.637 12.2847 160.637 11.8687C160.637 11.4526 160.521 11.1201 160.29 10.8711C160.055 10.6191 159.746 10.4932 159.362 10.4932C158.984 10.4932 158.678 10.6191 158.444 10.8711C158.21 11.123 158.092 11.4482 158.092 11.8467ZM165.953 9.71973H166.946V14H165.953V13.5518C165.546 13.9326 165.108 14.123 164.639 14.123C164.047 14.123 163.558 13.9092 163.171 13.4814C162.788 13.0449 162.596 12.5 162.596 11.8467C162.596 11.2051 162.788 10.6704 163.171 10.2427C163.555 9.81494 164.036 9.60107 164.613 9.60107C165.111 9.60107 165.558 9.80615 165.953 10.2163V9.71973ZM163.606 11.8467C163.606 12.2568 163.716 12.5908 163.936 12.8486C164.162 13.1094 164.446 13.2397 164.789 13.2397C165.155 13.2397 165.451 13.1138 165.676 12.8618C165.902 12.6011 166.015 12.27 166.015 11.8687C166.015 11.4673 165.902 11.1362 165.676 10.8755C165.451 10.6206 165.158 10.4932 164.797 10.4932C164.458 10.4932 164.173 10.6221 163.945 10.8799C163.719 11.1406 163.606 11.4629 163.606 11.8467ZM171.45 6.57764H172.443V14H171.45V13.5518C171.06 13.9326 170.619 14.123 170.127 14.123C169.541 14.123 169.055 13.9092 168.668 13.4814C168.284 13.0449 168.092 12.5 168.092 11.8467C168.092 11.208 168.284 10.6748 168.668 10.2471C169.049 9.81641 169.528 9.60107 170.105 9.60107C170.606 9.60107 171.054 9.80615 171.45 10.2163V6.57764ZM169.103 11.8467C169.103 12.2568 169.213 12.5908 169.433 12.8486C169.658 13.1094 169.942 13.2397 170.285 13.2397C170.651 13.2397 170.947 13.1138 171.173 12.8618C171.398 12.6011 171.511 12.27 171.511 11.8687C171.511 11.4673 171.398 11.1362 171.173 10.8755C170.947 10.6206 170.654 10.4932 170.294 10.4932C169.954 10.4932 169.67 10.6221 169.441 10.8799C169.216 11.1406 169.103 11.4629 169.103 11.8467ZM174.327 9.71973L175.448 12.1631L176.656 9.32861L177.873 12.1631L178.981 9.71973H180.088L177.847 14.3208L176.656 11.5654L175.452 14.3208L173.215 9.71973H174.327ZM183.866 9.71973H184.86V14H183.866V13.5518C183.459 13.9326 183.021 14.123 182.552 14.123C181.961 14.123 181.471 13.9092 181.085 13.4814C180.701 13.0449 180.509 12.5 180.509 11.8467C180.509 11.2051 180.701 10.6704 181.085 10.2427C181.468 9.81494 181.949 9.60107 182.526 9.60107C183.024 9.60107 183.471 9.80615 183.866 10.2163V9.71973ZM181.52 11.8467C181.52 12.2568 181.63 12.5908 181.849 12.8486C182.075 13.1094 182.359 13.2397 182.702 13.2397C183.068 13.2397 183.364 13.1138 183.59 12.8618C183.815 12.6011 183.928 12.27 183.928 11.8687C183.928 11.4673 183.815 11.1362 183.59 10.8755C183.364 10.6206 183.071 10.4932 182.711 10.4932C182.371 10.4932 182.087 10.6221 181.858 10.8799C181.633 11.1406 181.52 11.4629 181.52 11.8467ZM187.636 13.2046L185.711 9.71973H186.858L188.168 12.1807L189.389 9.71973H190.505L187.095 16.3291H185.966L187.636 13.2046ZM191.506 12.73L192.385 13.0728L191.133 15.582L190.465 15.3052L191.506 12.73ZM200.465 12.106H201.185V13.0376H200.465V14H199.441V13.0376H196.11L200.465 6.70947V12.106ZM199.441 12.106V9.83398L197.876 12.106H199.441ZM203.324 10.6426V14H202.336V10.6426H201.914V9.71973H202.336V8.15088H203.324V9.71973H204.093V10.6426H203.324ZM205.05 6.57764H206.039V10.0757C206.391 9.75928 206.779 9.60107 207.204 9.60107C207.687 9.60107 208.074 9.75781 208.364 10.0713C208.61 10.3438 208.733 10.7788 208.733 11.3765V14H207.744V11.4688C207.744 11.126 207.683 10.8784 207.56 10.7261C207.44 10.5708 207.245 10.4932 206.975 10.4932C206.629 10.4932 206.386 10.6001 206.246 10.814C206.108 11.0308 206.039 11.4028 206.039 11.9302V14H205.05V6.57764ZM216.492 14H215.503V8.19043C215.503 7.97363 215.43 7.7832 215.283 7.61914C215.137 7.45215 214.956 7.36865 214.743 7.36865C214.529 7.36865 214.349 7.45068 214.202 7.61475C214.059 7.77588 213.987 7.96777 213.987 8.19043V9.71973H215.121V10.6426H213.987V14H212.998V10.6426H212.646V9.71973H212.998V8.19043C212.998 7.70996 213.169 7.2998 213.512 6.95996C213.855 6.61719 214.267 6.4458 214.747 6.4458C215.227 6.4458 215.638 6.61719 215.977 6.95996C216.32 7.2998 216.492 7.70996 216.492 8.19043V14ZM217.646 11.8291C217.646 11.2109 217.867 10.6851 218.31 10.2515C218.752 9.81787 219.291 9.60107 219.927 9.60107C220.566 9.60107 221.108 9.81934 221.553 10.2559C221.992 10.6924 222.212 11.2285 222.212 11.8643C222.212 12.5059 221.991 13.0435 221.549 13.4771C221.103 13.9077 220.557 14.123 219.909 14.123C219.268 14.123 218.73 13.9033 218.297 13.4639C217.863 13.0303 217.646 12.4854 217.646 11.8291ZM218.657 11.8467C218.657 12.2744 218.771 12.6128 219 12.8618C219.234 13.1138 219.543 13.2397 219.927 13.2397C220.314 13.2397 220.623 13.1152 220.854 12.8662C221.086 12.6172 221.201 12.2847 221.201 11.8687C221.201 11.4526 221.086 11.1201 220.854 10.8711C220.62 10.6191 220.311 10.4932 219.927 10.4932C219.549 10.4932 219.243 10.6191 219.009 10.8711C218.774 11.123 218.657 11.4482 218.657 11.8467ZM223.16 11.8291C223.16 11.2109 223.382 10.6851 223.824 10.2515C224.266 9.81787 224.805 9.60107 225.441 9.60107C226.08 9.60107 226.622 9.81934 227.067 10.2559C227.507 10.6924 227.726 11.2285 227.726 11.8643C227.726 12.5059 227.505 13.0435 227.063 13.4771C226.617 13.9077 226.071 14.123 225.424 14.123C224.782 14.123 224.244 13.9033 223.811 13.4639C223.377 13.0303 223.16 12.4854 223.16 11.8291ZM224.171 11.8467C224.171 12.2744 224.285 12.6128 224.514 12.8618C224.748 13.1138 225.057 13.2397 225.441 13.2397C225.828 13.2397 226.137 13.1152 226.368 12.8662C226.6 12.6172 226.716 12.2847 226.716 11.8687C226.716 11.4526 226.6 11.1201 226.368 10.8711C226.134 10.6191 225.825 10.4932 225.441 10.4932C225.063 10.4932 224.757 10.6191 224.523 10.8711C224.288 11.123 224.171 11.4482 224.171 11.8467ZM228.877 9.71973H229.865V10.1021C230.047 9.91162 230.208 9.78125 230.349 9.71094C230.492 9.6377 230.662 9.60107 230.858 9.60107C231.119 9.60107 231.392 9.68604 231.676 9.85596L231.223 10.7612C231.036 10.6265 230.853 10.5591 230.674 10.5591C230.135 10.5591 229.865 10.9663 229.865 11.7808V14H228.877V9.71973ZM232.593 12.73L233.472 13.0728L232.22 15.582L231.552 15.3052L232.593 12.73ZM237.588 10.5767C237.588 9.62158 237.938 8.80127 238.638 8.11572C239.335 7.43018 240.173 7.0874 241.152 7.0874C242.118 7.0874 242.948 7.43311 243.639 8.12451C244.333 8.81592 244.68 9.64648 244.68 10.6162C244.68 11.5918 244.332 12.4194 243.635 13.0991C242.934 13.7817 242.089 14.123 241.099 14.123C240.223 14.123 239.436 13.8198 238.739 13.2134C237.971 12.5425 237.588 11.6636 237.588 10.5767ZM238.62 10.5898C238.62 11.3398 238.872 11.9565 239.376 12.4399C239.877 12.9233 240.456 13.165 241.112 13.165C241.824 13.165 242.425 12.9189 242.914 12.4268C243.403 11.9287 243.648 11.3223 243.648 10.6074C243.648 9.88379 243.406 9.27734 242.923 8.78809C242.442 8.2959 241.847 8.0498 241.138 8.0498C240.432 8.0498 239.836 8.2959 239.35 8.78809C238.864 9.27441 238.62 9.875 238.62 10.5898ZM249.034 9.71973H250.028V14H249.034V13.5518C248.627 13.9326 248.189 14.123 247.72 14.123C247.129 14.123 246.639 13.9092 246.253 13.4814C245.869 13.0449 245.677 12.5 245.677 11.8467C245.677 11.2051 245.869 10.6704 246.253 10.2427C246.636 9.81494 247.117 9.60107 247.694 9.60107C248.192 9.60107 248.639 9.80615 249.034 10.2163V9.71973ZM246.688 11.8467C246.688 12.2568 246.798 12.5908 247.017 12.8486C247.243 13.1094 247.527 13.2397 247.87 13.2397C248.236 13.2397 248.532 13.1138 248.758 12.8618C248.983 12.6011 249.096 12.27 249.096 11.8687C249.096 11.4673 248.983 11.1362 248.758 10.8755C248.532 10.6206 248.239 10.4932 247.879 10.4932C247.539 10.4932 247.255 10.6221 247.026 10.8799C246.8 11.1406 246.688 11.4629 246.688 11.8467ZM252.364 6.57764V11.104L253.757 9.71973H255.085L253.226 11.5171L255.221 14H253.938L252.523 12.1938L252.364 12.3521V14H251.376V6.57764H252.364ZM256.947 6.57764V14H255.958V6.57764H256.947ZM261.454 9.71973H262.448V14H261.454V13.5518C261.047 13.9326 260.609 14.123 260.141 14.123C259.549 14.123 259.059 13.9092 258.673 13.4814C258.289 13.0449 258.097 12.5 258.097 11.8467C258.097 11.2051 258.289 10.6704 258.673 10.2427C259.057 9.81494 259.537 9.60107 260.114 9.60107C260.612 9.60107 261.059 9.80615 261.454 10.2163V9.71973ZM259.108 11.8467C259.108 12.2568 259.218 12.5908 259.437 12.8486C259.663 13.1094 259.947 13.2397 260.29 13.2397C260.656 13.2397 260.952 13.1138 261.178 12.8618C261.403 12.6011 261.516 12.27 261.516 11.8687C261.516 11.4673 261.403 11.1362 261.178 10.8755C260.952 10.6206 260.659 10.4932 260.299 10.4932C259.959 10.4932 259.675 10.6221 259.446 10.8799C259.221 11.1406 259.108 11.4629 259.108 11.8467ZM263.796 9.71973H264.789V10.1152C265.135 9.77246 265.524 9.60107 265.958 9.60107C266.456 9.60107 266.844 9.75781 267.122 10.0713C267.363 10.3379 267.483 10.7729 267.483 11.3765V14H266.49V11.6094C266.49 11.1875 266.431 10.896 266.314 10.7349C266.2 10.5708 265.992 10.4888 265.69 10.4888C265.362 10.4888 265.129 10.5972 264.991 10.814C264.856 11.0278 264.789 11.4014 264.789 11.9346V14H263.796V9.71973ZM271.99 6.57764H272.984V14H271.99V13.5518C271.601 13.9326 271.16 14.123 270.668 14.123C270.082 14.123 269.595 13.9092 269.209 13.4814C268.825 13.0449 268.633 12.5 268.633 11.8467C268.633 11.208 268.825 10.6748 269.209 10.2471C269.59 9.81641 270.069 9.60107 270.646 9.60107C271.147 9.60107 271.595 9.80615 271.99 10.2163V6.57764ZM269.644 11.8467C269.644 12.2568 269.754 12.5908 269.973 12.8486C270.199 13.1094 270.483 13.2397 270.826 13.2397C271.192 13.2397 271.488 13.1138 271.714 12.8618C271.939 12.6011 272.052 12.27 272.052 11.8687C272.052 11.4673 271.939 11.1362 271.714 10.8755C271.488 10.6206 271.195 10.4932 270.835 10.4932C270.495 10.4932 270.211 10.6221 269.982 10.8799C269.757 11.1406 269.644 11.4629 269.644 11.8467ZM274.942 12.73L275.821 13.0728L274.569 15.582L273.901 15.3052L274.942 12.73ZM285.289 7.57959V8.79248C284.698 8.29736 284.085 8.0498 283.453 8.0498C282.755 8.0498 282.168 8.30029 281.69 8.80127C281.21 9.29932 280.97 9.90869 280.97 10.6294C280.97 11.3413 281.21 11.9419 281.69 12.4312C282.171 12.9204 282.76 13.165 283.457 13.165C283.817 13.165 284.123 13.1064 284.375 12.9893C284.516 12.9307 284.661 12.8516 284.81 12.752C284.963 12.6523 285.122 12.5322 285.289 12.3916V13.6265C284.704 13.9575 284.088 14.123 283.444 14.123C282.474 14.123 281.646 13.7847 280.961 13.1079C280.278 12.4253 279.937 11.6021 279.937 10.6382C279.937 9.77393 280.223 9.00342 280.794 8.32666C281.497 7.49756 282.407 7.08301 283.523 7.08301C284.132 7.08301 284.721 7.24854 285.289 7.57959ZM290.839 12.3521H287.934L287.178 14H286.075L289.432 6.78857L292.671 14H291.551L290.839 12.3521ZM290.421 11.3896L289.415 9.08252L288.36 11.3896H290.421ZM297.71 14.2329L296.958 13.6748L298.58 11.4644C298.492 11.4761 298.417 11.4849 298.356 11.4907C298.294 11.4966 298.244 11.4995 298.206 11.4995C297.658 11.4995 297.184 11.29 296.782 10.8711C296.384 10.4551 296.185 9.9541 296.185 9.36816C296.185 8.74414 296.406 8.21094 296.848 7.76855C297.294 7.32324 297.827 7.10059 298.448 7.10059C299.066 7.10059 299.604 7.32031 300.061 7.75977C300.518 8.19629 300.746 8.71191 300.746 9.30664C300.746 9.83398 300.524 10.4038 300.078 11.0161L297.71 14.2329ZM297.182 9.29346C297.182 9.65967 297.307 9.96729 297.556 10.2163C297.808 10.4683 298.111 10.5942 298.465 10.5942C298.82 10.5942 299.122 10.4697 299.371 10.2207C299.623 9.96875 299.749 9.66553 299.749 9.31104C299.749 8.95654 299.623 8.65332 299.371 8.40137C299.122 8.15234 298.818 8.02783 298.461 8.02783C298.109 8.02783 297.809 8.15234 297.56 8.40137C297.308 8.65332 297.182 8.95068 297.182 9.29346ZM305.008 12.106H305.729V13.0376H305.008V14H303.984V13.0376H300.653L305.008 6.70947V12.106ZM303.984 12.106V9.83398L302.419 12.106H303.984ZM309.757 6.97754L310.509 7.54004L308.887 9.74609C308.975 9.73438 309.05 9.72559 309.111 9.71973C309.173 9.71387 309.221 9.71094 309.256 9.71094C309.807 9.71094 310.283 9.92188 310.684 10.3438C311.083 10.7598 311.282 11.2607 311.282 11.8467C311.282 12.4678 311.059 13.001 310.614 13.4463C310.172 13.8887 309.64 14.1099 309.019 14.1099C308.404 14.1099 307.865 13.8916 307.402 13.4551C306.948 13.0186 306.721 12.5015 306.721 11.9038C306.721 11.3677 306.942 10.7993 307.384 10.1987L309.757 6.97754ZM310.285 11.9126C310.285 11.5522 310.16 11.2476 309.911 10.9985C309.659 10.7466 309.356 10.6206 309.001 10.6206C308.644 10.6206 308.341 10.7451 308.092 10.9941C307.843 11.2432 307.718 11.5449 307.718 11.8994C307.718 12.2539 307.843 12.5557 308.092 12.8047C308.341 13.0537 308.645 13.1782 309.006 13.1782C309.357 13.1782 309.658 13.0537 309.907 12.8047C310.159 12.5527 310.285 12.2554 310.285 11.9126ZM313.421 8.17285H312.248L312.81 7.21484H314.445V14H313.421V8.17285ZM318.179 13.0376H320.706V14H316.149L318.505 11.1479C318.736 10.8638 318.929 10.6177 319.085 10.4097C319.243 10.2017 319.363 10.0273 319.445 9.88672C319.612 9.61133 319.695 9.36377 319.695 9.14404C319.695 8.82764 319.584 8.5625 319.362 8.34863C319.139 8.13477 318.863 8.02783 318.535 8.02783C317.85 8.02783 317.457 8.43359 317.358 9.24512H316.338C316.502 7.81543 317.224 7.10059 318.505 7.10059C319.123 7.10059 319.641 7.29688 320.06 7.68945C320.482 8.08203 320.693 8.56836 320.693 9.14844C320.693 9.51758 320.595 9.87939 320.399 10.2339C320.299 10.4185 320.153 10.6382 319.959 10.8931C319.769 11.145 319.527 11.4438 319.234 11.7896L318.179 13.0376Z" fill="#FBFBFB"/>
<path d="M11.8271 7.57959V8.79248C11.2354 8.29736 10.623 8.0498 9.99023 8.0498C9.29297 8.0498 8.70557 8.30029 8.22803 8.80127C7.74756 9.29932 7.50732 9.90869 7.50732 10.6294C7.50732 11.3413 7.74756 11.9419 8.22803 12.4312C8.7085 12.9204 9.29736 13.165 9.99463 13.165C10.355 13.165 10.6611 13.1064 10.9131 12.9893C11.0537 12.9307 11.1987 12.8516 11.3481 12.752C11.5005 12.6523 11.6602 12.5322 11.8271 12.3916V13.6265C11.2412 13.9575 10.626 14.123 9.98145 14.123C9.01172 14.123 8.18408 13.7847 7.49854 13.1079C6.81592 12.4253 6.47461 11.6021 6.47461 10.6382C6.47461 9.77393 6.76025 9.00342 7.33154 8.32666C8.03467 7.49756 8.94434 7.08301 10.0605 7.08301C10.6699 7.08301 11.2588 7.24854 11.8271 7.57959Z" fill="white"/>
<circle cx="10" cy="11" r="9" stroke="white" stroke-width="2"/>
</svg>
