<svg width="129" height="26" viewBox="0 0 129 26" fill="none" xmlns="http://www.w3.org/2000/svg">
<path d="M24.1887 8.8192V11.8468L18.4105 7.42922L17.6533 6.84606L12.2976 2.756L6.75848 6.94192L5.9854 7.52508L0 12.0465C0.0956388 11.8388 0.0557893 8.89109 0.0557893 8.89109L3.92119 5.99929L4.6863 5.42413L12.3294 0" fill="#367A9F"/>
<path d="M2.60616 11.5273L11.644 18.1896V22.2956H2.57428V11.5512L2.60616 11.5273Z" fill="#60AC56"/>
<path d="M6.97367 8.25195L11.644 11.687V17.0472L3.37128 10.952L6.97367 8.25195Z" fill="#60AC56"/>
<path d="M16.6013 7.62091L12.1382 10.9121L7.73877 7.66884L12.2258 4.30573L16.6013 7.62091Z" fill="#60AC56"/>
<path d="M20.9688 10.9281L12.6083 17.0872V11.703L17.3664 8.19608H17.3743L20.9688 10.9281Z" fill="#60AC56"/>
<path d="M21.7976 11.5512V22.2956H12.6083V18.2375L21.7418 11.5113L21.7976 11.5512Z" fill="#60AC56"/>
<path d="M30.4637 22V11.35H35.0237C35.4937 11.35 35.9237 11.45 36.3137 11.65C36.7137 11.84 37.0537 12.1 37.3337 12.43C37.6237 12.75 37.8487 13.115 38.0087 13.525C38.1687 13.925 38.2487 14.335 38.2487 14.755C38.2487 15.125 38.1937 15.485 38.0837 15.835C37.9837 16.175 37.8337 16.485 37.6337 16.765C37.4437 17.045 37.2087 17.285 36.9287 17.485C36.6587 17.685 36.3537 17.83 36.0137 17.92L38.5937 22H37.0637L34.6337 18.175H31.8137V22H30.4637ZM31.8137 16.975H35.0387C35.3187 16.975 35.5687 16.915 35.7887 16.795C36.0187 16.675 36.2137 16.515 36.3737 16.315C36.5337 16.105 36.6587 15.865 36.7487 15.595C36.8387 15.325 36.8837 15.045 36.8837 14.755C36.8837 14.455 36.8287 14.175 36.7187 13.915C36.6187 13.645 36.4787 13.41 36.2987 13.21C36.1287 13 35.9237 12.84 35.6837 12.73C35.4537 12.61 35.2087 12.55 34.9487 12.55H31.8137V16.975ZM44.9281 22.15C44.3381 22.15 43.7981 22.045 43.3081 21.835C42.8181 21.615 42.3981 21.32 42.0481 20.95C41.6981 20.58 41.4231 20.15 41.2231 19.66C41.0331 19.16 40.9381 18.635 40.9381 18.085C40.9381 17.535 41.0331 17.015 41.2231 16.525C41.4231 16.035 41.6981 15.605 42.0481 15.235C42.4081 14.865 42.8331 14.575 43.3231 14.365C43.8131 14.145 44.3531 14.035 44.9431 14.035C45.5331 14.035 46.0681 14.145 46.5481 14.365C47.0381 14.585 47.4531 14.88 47.7931 15.25C48.1331 15.61 48.3931 16.035 48.5731 16.525C48.7631 17.005 48.8581 17.505 48.8581 18.025C48.8581 18.135 48.8531 18.235 48.8431 18.325C48.8431 18.415 48.8381 18.485 48.8281 18.535H42.3331C42.3631 18.925 42.4531 19.28 42.6031 19.6C42.7531 19.92 42.9481 20.195 43.1881 20.425C43.4281 20.655 43.6981 20.835 43.9981 20.965C44.3081 21.095 44.6331 21.16 44.9731 21.16C45.2131 21.16 45.4481 21.13 45.6781 21.07C45.9081 21 46.1231 20.91 46.3231 20.8C46.5231 20.69 46.6981 20.555 46.8481 20.395C47.0081 20.235 47.1281 20.055 47.2081 19.855L48.3481 20.17C48.2181 20.46 48.0381 20.725 47.8081 20.965C47.5881 21.205 47.3281 21.415 47.0281 21.595C46.7381 21.765 46.4131 21.9 46.0531 22C45.6931 22.1 45.3181 22.15 44.9281 22.15ZM47.6131 17.56C47.5831 17.19 47.4881 16.85 47.3281 16.54C47.1781 16.22 46.9831 15.95 46.7431 15.73C46.5131 15.51 46.2431 15.34 45.9331 15.22C45.6231 15.09 45.2931 15.025 44.9431 15.025C44.5931 15.025 44.2631 15.09 43.9531 15.22C43.6431 15.34 43.3681 15.515 43.1281 15.745C42.8981 15.965 42.7081 16.23 42.5581 16.54C42.4181 16.85 42.3331 17.19 42.3031 17.56H47.6131ZM58.7204 22H57.4004V17.62C57.4004 16.78 57.2704 16.17 57.0104 15.79C56.7604 15.41 56.3754 15.22 55.8554 15.22C55.5854 15.22 55.3154 15.275 55.0454 15.385C54.7754 15.485 54.5204 15.625 54.2804 15.805C54.0404 15.985 53.8304 16.2 53.6504 16.45C53.4704 16.7 53.3354 16.975 53.2454 17.275V22H51.9254V14.17H53.1254V15.85C53.4354 15.3 53.8804 14.86 54.4604 14.53C55.0504 14.2 55.6904 14.035 56.3804 14.035C56.8304 14.035 57.2054 14.12 57.5054 14.29C57.8054 14.45 58.0454 14.68 58.2254 14.98C58.4054 15.27 58.5304 15.615 58.6004 16.015C58.6804 16.415 58.7204 16.85 58.7204 17.32V22ZM65.8381 22.15C65.2481 22.15 64.7081 22.045 64.2181 21.835C63.7281 21.615 63.3081 21.32 62.9581 20.95C62.6081 20.58 62.3331 20.15 62.1331 19.66C61.9431 19.16 61.8481 18.635 61.8481 18.085C61.8481 17.535 61.9431 17.015 62.1331 16.525C62.3331 16.035 62.6081 15.605 62.9581 15.235C63.3181 14.865 63.7431 14.575 64.2331 14.365C64.7231 14.145 65.2631 14.035 65.8531 14.035C66.4431 14.035 66.9781 14.145 67.4581 14.365C67.9481 14.585 68.3631 14.88 68.7031 15.25C69.0431 15.61 69.3031 16.035 69.4831 16.525C69.6731 17.005 69.7681 17.505 69.7681 18.025C69.7681 18.135 69.7631 18.235 69.7531 18.325C69.7531 18.415 69.7481 18.485 69.7381 18.535H63.2431C63.2731 18.925 63.3631 19.28 63.5131 19.6C63.6631 19.92 63.8581 20.195 64.0981 20.425C64.3381 20.655 64.6081 20.835 64.9081 20.965C65.2181 21.095 65.5431 21.16 65.8831 21.16C66.1231 21.16 66.3581 21.13 66.5881 21.07C66.8181 21 67.0331 20.91 67.2331 20.8C67.4331 20.69 67.6081 20.555 67.7581 20.395C67.9181 20.235 68.0381 20.055 68.1181 19.855L69.2581 20.17C69.1281 20.46 68.9481 20.725 68.7181 20.965C68.4981 21.205 68.2381 21.415 67.9381 21.595C67.6481 21.765 67.3231 21.9 66.9631 22C66.6031 22.1 66.2281 22.15 65.8381 22.15ZM68.5231 17.56C68.4931 17.19 68.3981 16.85 68.2381 16.54C68.0881 16.22 67.8931 15.95 67.6531 15.73C67.4231 15.51 67.1531 15.34 66.8431 15.22C66.5331 15.09 66.2031 15.025 65.8531 15.025C65.5031 15.025 65.1731 15.09 64.8631 15.22C64.5531 15.34 64.2781 15.515 64.0381 15.745C63.8081 15.965 63.6181 16.23 63.4681 16.54C63.3281 16.85 63.2431 17.19 63.2131 17.56H68.5231ZM82.4403 14.17H83.7153L80.3853 22H79.2903L77.7153 18.175L76.1553 22H75.0603L71.7303 14.17H72.9903L75.6903 20.695L77.0103 17.44L75.6603 14.185H76.7553L77.7153 16.69L78.6753 14.185H79.7703L78.4353 17.44L79.7553 20.695L82.4403 14.17ZM86.3996 22V11.35H90.9896C91.5096 11.35 91.9896 11.46 92.4296 11.68C92.8696 11.89 93.2446 12.17 93.5546 12.52C93.8746 12.86 94.1246 13.255 94.3046 13.705C94.4846 14.145 94.5746 14.59 94.5746 15.04C94.5746 15.51 94.4896 15.97 94.3196 16.42C94.1496 16.86 93.9096 17.255 93.5996 17.605C93.2996 17.945 92.9296 18.22 92.4896 18.43C92.0596 18.63 91.5846 18.73 91.0646 18.73H89.3246V22H86.3996ZM89.3246 16.18H90.8696C91.0496 16.18 91.2146 16.1 91.3646 15.94C91.5246 15.77 91.6046 15.47 91.6046 15.04C91.6046 14.6 91.5146 14.3 91.3346 14.14C91.1546 13.98 90.9746 13.9 90.7946 13.9H89.3246V16.18ZM95.4461 22L99.4211 11.35H101.791L105.751 22H102.661L102.016 19.915H99.1811L98.5511 22H95.4461ZM100.606 14.395L99.6161 17.965H101.551L100.606 14.395ZM107.149 16.585C107.149 15.935 107.264 15.295 107.494 14.665C107.724 14.035 108.059 13.47 108.499 12.97C108.949 12.47 109.489 12.065 110.119 11.755C110.759 11.445 111.484 11.29 112.294 11.29C113.244 11.29 114.074 11.505 114.784 11.935C115.494 12.355 116.019 12.915 116.359 13.615L114.124 15.205C114.034 14.945 113.914 14.73 113.764 14.56C113.624 14.39 113.469 14.255 113.299 14.155C113.129 14.055 112.949 13.985 112.759 13.945C112.569 13.905 112.394 13.885 112.234 13.885C111.864 13.885 111.544 13.97 111.274 14.14C111.014 14.3 110.794 14.515 110.614 14.785C110.444 15.045 110.319 15.345 110.239 15.685C110.159 16.015 110.119 16.345 110.119 16.675C110.119 17.045 110.164 17.4 110.254 17.74C110.354 18.08 110.494 18.38 110.674 18.64C110.864 18.9 111.089 19.11 111.349 19.27C111.619 19.42 111.924 19.495 112.264 19.495C112.434 19.495 112.609 19.475 112.789 19.435C112.969 19.385 113.139 19.31 113.299 19.21C113.469 19.1 113.619 18.965 113.749 18.805C113.889 18.635 113.999 18.43 114.079 18.19L116.464 19.615C116.314 20.005 116.084 20.355 115.774 20.665C115.474 20.975 115.129 21.235 114.739 21.445C114.349 21.655 113.934 21.815 113.494 21.925C113.054 22.035 112.624 22.09 112.204 22.09C111.464 22.09 110.784 21.935 110.164 21.625C109.544 21.305 109.009 20.885 108.559 20.365C108.119 19.845 107.774 19.255 107.524 18.595C107.274 17.935 107.149 17.265 107.149 16.585ZM126.753 19.45V22H119.163V11.35H126.618V13.9H122.088V15.4H125.958V17.77H122.088V19.45H126.753Z" fill="#F9F9F9"/>
</svg>
