<svg width="604" height="107" viewBox="0 0 604 107" fill="none" xmlns="http://www.w3.org/2000/svg">
<path d="M115 41.9291V56.3232L87.5288 35.3207L83.9292 32.5482L58.4662 13.1028L32.1318 33.0039L28.4563 35.7764L0 57.2727C0.454695 56.2852 0.265239 42.2709 0.265239 42.2709L18.6425 28.5224L22.2801 25.7879L58.6178 0" fill="#367A9F"/>
<path d="M12.3905 54.8041L55.3592 86.4788V106H12.2389V54.9181L12.3905 54.8041Z" fill="#60AC56"/>
<path d="M33.1549 39.2324L55.3591 55.5635V81.0475L16.028 52.0694L33.1549 39.2324Z" fill="#60AC56"/>
<path d="M78.9275 36.2322L57.7084 51.8796L36.7924 36.4601L58.1252 20.4708L78.9275 36.2322Z" fill="#60AC56"/>
<path d="M99.6919 51.9556L59.944 81.2376V55.6396L82.5651 38.9667H82.603L99.6919 51.9556Z" fill="#60AC56"/>
<path d="M103.633 54.918V106H59.944V86.7067L103.367 54.7281L103.633 54.918Z" fill="#60AC56"/>
<path d="M142.8 106V49.2H167.12C169.627 49.2 171.92 49.7333 174 50.8C176.133 51.8133 177.947 53.2 179.44 54.96C180.987 56.6667 182.187 58.6133 183.04 60.8C183.893 62.9333 184.32 65.12 184.32 67.36C184.32 69.3333 184.027 71.2533 183.44 73.12C182.907 74.9333 182.107 76.5867 181.04 78.08C180.027 79.5733 178.773 80.8533 177.28 81.92C175.84 82.9867 174.213 83.76 172.4 84.24L186.16 106H178L165.04 85.6H150V106H142.8ZM150 79.2H167.2C168.693 79.2 170.027 78.88 171.2 78.24C172.427 77.6 173.467 76.7467 174.32 75.68C175.173 74.56 175.84 73.28 176.32 71.84C176.8 70.4 177.04 68.9067 177.04 67.36C177.04 65.76 176.747 64.2667 176.16 62.88C175.627 61.44 174.88 60.1867 173.92 59.12C173.013 58 171.92 57.1467 170.64 56.56C169.413 55.92 168.107 55.6 166.72 55.6H150V79.2ZM213.01 106.8C209.863 106.8 206.983 106.24 204.37 105.12C201.757 103.947 199.517 102.373 197.65 100.4C195.783 98.4267 194.317 96.1333 193.25 93.52C192.237 90.8533 191.73 88.0533 191.73 85.12C191.73 82.1867 192.237 79.4133 193.25 76.8C194.317 74.1867 195.783 71.8933 197.65 69.92C199.57 67.9467 201.837 66.4 204.45 65.28C207.063 64.1067 209.943 63.52 213.09 63.52C216.237 63.52 219.09 64.1067 221.65 65.28C224.263 66.4533 226.477 68.0267 228.29 70C230.103 71.92 231.49 74.1867 232.45 76.8C233.463 79.36 233.97 82.0267 233.97 84.8C233.97 85.3867 233.943 85.92 233.89 86.4C233.89 86.88 233.863 87.2533 233.81 87.52H199.17C199.33 89.6 199.81 91.4933 200.61 93.2C201.41 94.9067 202.45 96.3733 203.73 97.6C205.01 98.8267 206.45 99.7867 208.05 100.48C209.703 101.173 211.437 101.52 213.25 101.52C214.53 101.52 215.783 101.36 217.01 101.04C218.237 100.667 219.383 100.187 220.45 99.6C221.517 99.0133 222.45 98.2933 223.25 97.44C224.103 96.5867 224.743 95.6267 225.17 94.56L231.25 96.24C230.557 97.7867 229.597 99.2 228.37 100.48C227.197 101.76 225.81 102.88 224.21 103.84C222.663 104.747 220.93 105.467 219.01 106C217.09 106.533 215.09 106.8 213.01 106.8ZM227.33 82.32C227.17 80.3467 226.663 78.5333 225.81 76.88C225.01 75.1733 223.97 73.7333 222.69 72.56C221.463 71.3867 220.023 70.48 218.37 69.84C216.717 69.1467 214.957 68.8 213.09 68.8C211.223 68.8 209.463 69.1467 207.81 69.84C206.157 70.48 204.69 71.4133 203.41 72.64C202.183 73.8133 201.17 75.2267 200.37 76.88C199.623 78.5333 199.17 80.3467 199.01 82.32H227.33ZM279.636 106H272.596V82.64C272.596 78.16 271.902 74.9067 270.516 72.88C269.182 70.8533 267.129 69.84 264.356 69.84C262.916 69.84 261.476 70.1333 260.036 70.72C258.596 71.2533 257.236 72 255.956 72.96C254.676 73.92 253.556 75.0667 252.596 76.4C251.636 77.7333 250.916 79.2 250.436 80.8V106H243.396V64.24H249.796V73.2C251.449 70.2667 253.822 67.92 256.916 66.16C260.062 64.4 263.476 63.52 267.156 63.52C269.556 63.52 271.556 63.9733 273.156 64.88C274.756 65.7333 276.036 66.96 276.996 68.56C277.956 70.1067 278.622 71.9467 278.996 74.08C279.422 76.2133 279.636 78.5333 279.636 81.04V106ZM310.663 106.8C307.516 106.8 304.636 106.24 302.023 105.12C299.41 103.947 297.17 102.373 295.303 100.4C293.436 98.4267 291.97 96.1333 290.903 93.52C289.89 90.8533 289.383 88.0533 289.383 85.12C289.383 82.1867 289.89 79.4133 290.903 76.8C291.97 74.1867 293.436 71.8933 295.303 69.92C297.223 67.9467 299.49 66.4 302.103 65.28C304.716 64.1067 307.596 63.52 310.743 63.52C313.89 63.52 316.743 64.1067 319.303 65.28C321.916 66.4533 324.13 68.0267 325.943 70C327.756 71.92 329.143 74.1867 330.103 76.8C331.116 79.36 331.623 82.0267 331.623 84.8C331.623 85.3867 331.596 85.92 331.543 86.4C331.543 86.88 331.516 87.2533 331.463 87.52H296.823C296.983 89.6 297.463 91.4933 298.263 93.2C299.063 94.9067 300.103 96.3733 301.383 97.6C302.663 98.8267 304.103 99.7867 305.703 100.48C307.356 101.173 309.09 101.52 310.903 101.52C312.183 101.52 313.436 101.36 314.663 101.04C315.89 100.667 317.036 100.187 318.103 99.6C319.17 99.0133 320.103 98.2933 320.903 97.44C321.756 96.5867 322.396 95.6267 322.823 94.56L328.903 96.24C328.21 97.7867 327.25 99.2 326.023 100.48C324.85 101.76 323.463 102.88 321.863 103.84C320.316 104.747 318.583 105.467 316.663 106C314.743 106.533 312.743 106.8 310.663 106.8ZM324.983 82.32C324.823 80.3467 324.316 78.5333 323.463 76.88C322.663 75.1733 321.623 73.7333 320.343 72.56C319.116 71.3867 317.676 70.48 316.023 69.84C314.37 69.1467 312.61 68.8 310.743 68.8C308.876 68.8 307.116 69.1467 305.463 69.84C303.81 70.48 302.343 71.4133 301.063 72.64C299.836 73.8133 298.823 75.2267 298.023 76.88C297.276 78.5333 296.823 80.3467 296.663 82.32H324.983ZM392.275 64.24H399.075L381.315 106H375.475L367.075 85.6L358.755 106H352.915L335.155 64.24H341.875L356.275 99.04L363.315 81.68L356.115 64.32H361.955L367.075 77.68L372.195 64.32H378.035L370.915 81.68L377.955 99.04L392.275 64.24ZM406.458 106V49.2H430.938C433.711 49.2 436.271 49.7867 438.618 50.96C440.965 52.08 442.965 53.5733 444.618 55.44C446.325 57.2533 447.658 59.36 448.618 61.76C449.578 64.1067 450.058 66.48 450.058 68.88C450.058 71.3867 449.605 73.84 448.698 76.24C447.791 78.5867 446.511 80.6933 444.858 82.56C443.258 84.3733 441.285 85.84 438.938 86.96C436.645 88.0267 434.111 88.56 431.338 88.56H422.058V106H406.458ZM422.058 74.96H430.298C431.258 74.96 432.138 74.5333 432.938 73.68C433.791 72.7733 434.218 71.1733 434.218 68.88C434.218 66.5333 433.738 64.9333 432.778 64.08C431.818 63.2267 430.858 62.8 429.898 62.8H422.058V74.96ZM447.773 106L468.973 49.2H481.613L502.733 106H486.253L482.813 94.88H467.693L464.333 106H447.773ZM475.293 65.44L470.013 84.48H480.333L475.293 65.44ZM503.257 77.12C503.257 73.6533 503.87 70.24 505.097 66.88C506.324 63.52 508.11 60.5067 510.457 57.84C512.857 55.1733 515.737 53.0133 519.097 51.36C522.51 49.7067 526.377 48.88 530.697 48.88C535.764 48.88 540.19 50.0267 543.977 52.32C547.764 54.56 550.564 57.5467 552.377 61.28L540.457 69.76C539.977 68.3733 539.337 67.2267 538.537 66.32C537.79 65.4133 536.964 64.6933 536.057 64.16C535.15 63.6267 534.19 63.2533 533.177 63.04C532.164 62.8267 531.23 62.72 530.377 62.72C528.404 62.72 526.697 63.1733 525.257 64.08C523.87 64.9333 522.697 66.08 521.737 67.52C520.83 68.9067 520.164 70.5067 519.737 72.32C519.31 74.08 519.097 75.84 519.097 77.6C519.097 79.5733 519.337 81.4667 519.817 83.28C520.35 85.0933 521.097 86.6933 522.057 88.08C523.07 89.4667 524.27 90.5867 525.657 91.44C527.097 92.24 528.724 92.64 530.537 92.64C531.444 92.64 532.377 92.5333 533.337 92.32C534.297 92.0533 535.204 91.6533 536.057 91.12C536.964 90.5333 537.764 89.8133 538.457 88.96C539.204 88.0533 539.79 86.96 540.217 85.68L552.937 93.28C552.137 95.36 550.91 97.2267 549.257 98.88C547.657 100.533 545.817 101.92 543.737 103.04C541.657 104.16 539.444 105.013 537.097 105.6C534.75 106.187 532.457 106.48 530.217 106.48C526.27 106.48 522.644 105.653 519.337 104C516.03 102.293 513.177 100.053 510.777 97.28C508.43 94.5067 506.59 91.36 505.257 87.84C503.924 84.32 503.257 80.7467 503.257 77.12ZM600.879 92.4V106H560.399V49.2H600.159V62.8H575.999V70.8H596.639V83.44H575.999V92.4H600.879Z" fill="#54565A"/>
</svg>
