<svg width="274" height="84" viewBox="0 0 274 84" fill="none" xmlns="http://www.w3.org/2000/svg">
<path fill-rule="evenodd" clip-rule="evenodd" d="M26.1509 49.1017L8.0983 37.0603C8.05242 37.6453 8.02014 38.235 8.02014 38.8312C8.02014 49.9959 19.3427 58.1024 26.1509 61.9615V49.1017ZM28.8949 45.8661L46.5432 34.0972C45.4812 28.8572 42.7678 24.2279 39.5855 20.3575L28.8949 27.4876V45.8661ZM27.5238 25.1673L37.8032 18.3112C34.8213 15.0869 31.6321 12.5024 29.0971 10.6703L27.5323 9.54242L25.9708 10.6752C23.4341 12.5121 20.2501 15.1047 17.2682 18.3289L27.5238 25.1673Z" fill="#81BD41"/>
<path fill-rule="evenodd" clip-rule="evenodd" d="M32.5248 80.0022C32.0427 82.2839 29.9666 84 27.4797 84C24.9928 84 22.9184 82.2839 22.4363 80.0022H32.5248ZM34.9811 74.148C36.0981 74.148 37.0046 75.0294 37.0046 76.1171C37.0046 77.2064 36.0981 78.0878 34.9811 78.0878H19.9817C18.8647 78.0878 17.9582 77.2064 17.9582 76.1171C17.9582 75.0294 18.8647 74.148 19.9817 74.148H34.9811ZM21.4076 68.3825C13.728 63.9689 0 53.9671 0 38.8668C0 29.2791 4.55958 19.7027 13.1848 11.1704C19.5828 4.83933 25.9248 1.31041 26.1896 1.16377L27.4797 0.453156L28.7699 1.16377C29.0347 1.31202 35.3767 4.83933 41.7747 11.1704C50.3999 19.7027 54.9578 29.2791 54.9578 38.8668C54.9578 53.9671 41.2315 63.9689 33.5535 68.3841H34.9778C36.0947 68.3841 36.9995 69.2672 36.9995 70.3548C36.9995 71.4425 36.0947 72.3239 34.9778 72.3239H19.9783C18.8613 72.3239 17.9548 71.4425 17.9548 70.3548C17.9548 69.2672 18.8613 68.3841 19.9783 68.3841H21.4076V68.3825ZM27.4797 65.8027C22.9235 63.5725 5.2352 53.9494 5.2352 38.8668C5.2352 21.6154 22.562 9.47366 27.4814 6.37498C32.4094 9.46722 49.7243 21.5719 49.7243 38.8668C49.7243 53.9107 32.0325 63.5661 27.4797 65.8027ZM28.8513 49.1378V62.024C35.6381 58.2066 46.9658 50.1417 46.9658 38.8685C46.9658 38.2723 46.9352 37.6809 46.8911 37.0976L28.8513 49.1378ZM26.1098 27.5227L15.4544 20.4085C12.2664 24.2839 9.54865 28.9134 8.4809 34.1375L26.1098 45.9037V27.5227Z" fill="#3BAE49"/>
<path fill-rule="evenodd" clip-rule="evenodd" d="M188.609 15.5206L196.179 35.5662L199.055 28.3825L194.192 15.5961H200.308L203.068 23.4563L205.829 15.5961H211.99L207.048 28.3825L209.992 35.5774L217.53 15.5206H224.564L212.799 43.534H207.543L203.07 33.034L198.597 43.534H193.338L193.205 43.2142L181.612 15.5206H188.609ZM84.5003 15.5206C90.1201 15.5206 93.8933 20.4244 93.8933 25.0035C93.8933 28.4628 91.9923 31.6361 89.1067 33.0902L95.8471 43.534H88.4827L82.6384 34.4865H78.1238V43.534H71.6555V15.5206H84.5003ZM145.201 32.282V15.5608H151.67V43.534H146.495L132.958 27.1807V43.534H126.488V15.5206H131.469L145.201 32.282ZM120.486 15.519V21.141H106.912V26.6199H118.641V31.8996H106.912V37.912H120.838V43.534H100.443V15.519H120.486ZM178.808 15.519V21.141H165.234V26.6199H176.963V31.8996H165.234V37.912H179.16V43.534H158.765V15.519H178.808ZM84.383 28.8645C86.0681 28.8645 87.3859 27.1678 87.3859 25.0035C87.3859 22.6947 85.711 21.141 84.1466 21.141H78.1238V28.8645H84.383Z" fill="white"/>
<path fill-rule="evenodd" clip-rule="evenodd" d="M203.171 52.7477C208.114 52.7477 211.724 55.1837 213.449 58.644L211.253 59.9367C209.488 56.3623 206.035 55.1451 203.017 55.1451C196.348 55.1451 192.7 60.9272 192.7 66.3684C192.7 72.3402 197.21 77.7427 203.134 77.7427C206.273 77.7427 209.959 76.2217 211.724 72.7212L213.998 73.8628C212.195 77.8955 207.252 80.1401 202.976 80.1401C195.328 80.1401 189.954 73.0653 189.954 66.2156C189.954 59.7116 194.777 52.7477 203.171 52.7477ZM164.147 79.9118H161.442V52.9005H163.559L181.997 75.3839V52.9375H184.702V79.9102H182.348L164.147 57.8448V79.9118ZM107.203 79.9118H104.496V52.9005H106.615L125.05 75.3839V52.9375H127.757V79.9102H125.404L107.203 57.8448V79.9118ZM90.0288 55.2609H74.4937V65.1882H87.6332V67.3958H74.4937V79.9118H71.7869V52.9005H90.0271V55.2609H90.0288ZM257.878 77.553H274V79.9118H255.173V52.9005H257.88V77.553H257.878ZM157.406 79.9102H154.465L150.855 71.4638H138.343L134.772 79.9102H131.87L143.52 52.9005H145.756L157.406 79.9102ZM251.139 79.9102H248.197L244.588 71.4638H232.075L228.505 79.9102H225.603L237.253 52.9005H239.487L251.139 79.9102ZM97.4351 52.9375V79.9102H94.73V52.9375H97.4351ZM221.485 52.9375V79.9102H218.78V52.9375H221.485ZM144.658 56.0198L138.931 69.3736H150.228L144.658 56.0198ZM238.388 56.0198L232.662 69.3736H243.96L238.388 56.0198Z" fill="white"/>
</svg>
