<svg width="704" height="214" viewBox="0 0 704 214" fill="none" xmlns="http://www.w3.org/2000/svg">
<path fill-rule="evenodd" clip-rule="evenodd" d="M67.5941 124.881L21.2009 93.8696C21.083 95.376 21 96.8948 21 98.4302C21 127.184 50.0979 148.061 67.5941 158V124.881ZM74.6459 116.548L120 86.2382C117.271 72.7432 110.298 60.8209 102.119 50.8532L74.6459 69.2159V116.548ZM71.1222 63.2402L97.5391 45.583C89.876 37.2793 81.6802 30.6231 75.1655 25.9048L71.1441 23L67.1313 25.9173C60.6122 30.648 52.4295 37.325 44.7665 45.6286L71.1222 63.2402Z" fill="#81BD41"/>
<path fill-rule="evenodd" clip-rule="evenodd" d="M83.4459 203.76C82.209 209.604 76.8826 214 70.5022 214C64.1218 214 58.7997 209.604 57.5628 203.76H83.4459ZM89.7479 188.765C92.6136 188.765 94.9393 191.022 94.9393 193.809C94.9393 196.599 92.6136 198.856 89.7479 198.856H51.2652C48.3995 198.856 46.0738 196.599 46.0738 193.809C46.0738 191.022 48.3995 188.765 51.2652 188.765H89.7479ZM54.9236 173.997C35.2206 162.692 0 137.073 0 98.3943C0 73.8359 11.6981 49.3065 33.8269 27.4517C50.2417 11.2349 66.5128 2.1958 67.1922 1.82021L70.5022 0L73.8121 1.82021C74.4916 2.19993 90.7626 11.2349 107.177 27.4517C129.306 49.3065 141 73.8359 141 98.3943C141 137.073 105.784 162.692 86.0851 174.001H89.7392C92.6049 174.001 94.9262 176.263 94.9262 179.049C94.9262 181.835 92.6049 184.093 89.7392 184.093H51.2565C48.3908 184.093 46.0651 181.835 46.0651 179.049C46.0651 176.263 48.3908 174.001 51.2565 174.001H54.9236V173.997ZM70.5022 167.389C58.8128 161.676 13.4315 137.027 13.4315 98.3943C13.4315 54.2058 57.8851 23.1055 70.5065 15.1684C83.1497 23.089 127.573 54.0944 127.573 98.3943C127.573 136.928 82.1829 161.66 70.5022 167.389ZM74.0212 124.703V157.71C91.4333 147.932 120.496 127.274 120.496 98.3984C120.496 96.8712 120.417 95.3565 120.304 93.8623L74.0212 124.703ZM66.9875 69.337L39.6499 51.1143C31.4708 61.0409 24.4981 72.899 21.7586 86.2802L66.9875 116.419V69.337Z" fill="#3BAE49"/>
<path fill-rule="evenodd" clip-rule="evenodd" d="M484.59 39.0041L504.046 90.5224L511.437 72.0599L498.938 39.1982H514.658L521.751 59.3992L528.848 39.1982H544.682L531.982 72.0599L539.546 90.5513L558.92 39.0041H577L546.762 111H533.253L521.755 84.0145L510.261 111H496.744L496.403 110.178L466.606 39.0041H484.59ZM217.013 39.0041C231.457 39.0041 241.155 51.607 241.155 63.3758C241.155 72.2663 236.269 80.4219 228.852 84.159L246.176 111H227.249L212.228 87.7474H200.625V111H184V39.0041H217.013ZM373.025 82.0819V39.1074H389.649V111H376.35L341.558 68.9711V111H324.929V39.0041H337.73L373.025 82.0819ZM309.502 39V53.4487H274.614V67.5299H304.76V81.0991H274.614V96.5513H310.407V111H257.989V39H309.502ZM459.399 39V53.4487H424.511V67.5299H454.658V81.0991H424.511V96.5513H460.304V111H407.887V39H459.399ZM216.712 73.2987C221.043 73.2987 224.43 68.9381 224.43 63.3758C224.43 57.4418 220.125 53.4487 216.104 53.4487H200.625V73.2987H216.712Z" fill="#151515"/>
<path fill-rule="evenodd" clip-rule="evenodd" d="M522.211 134C534.897 134 544.161 140.314 548.591 149.283L542.953 152.634C538.423 143.369 529.56 140.214 521.814 140.214C504.699 140.214 495.334 155.201 495.334 169.304C495.334 184.783 506.912 198.786 522.115 198.786C530.171 198.786 539.632 194.843 544.161 185.77L550 188.73C545.37 199.182 532.684 205 521.709 205C502.081 205 488.287 186.662 488.287 168.908C488.287 152.05 500.667 134 522.211 134ZM422.052 204.408H415.11V134.396H420.543L467.864 192.672V134.492H474.807V204.404H468.767L422.052 147.211V204.408ZM275.899 204.408H268.952V134.396H274.389L321.706 192.672V134.492H328.653V204.404H322.614L275.899 147.211V204.408ZM231.82 140.514H191.947V166.245H225.671V171.967H191.947V204.408H185V134.396H231.815V140.514H231.82ZM662.622 198.294H704V204.408H655.679V134.396H662.626V198.294H662.622ZM404.75 204.404H397.2L387.936 182.511H355.822L346.658 204.404H339.209L369.11 134.396H374.849L404.75 204.404ZM645.324 204.404H637.774L628.51 182.511H596.397L587.232 204.404H579.783L609.684 134.396H615.418L645.324 204.404ZM250.829 134.492V204.404H243.886V134.492H250.829ZM569.214 134.492V204.404H562.271V134.492H569.214ZM372.03 142.481L357.332 177.093H386.326L372.03 142.481ZM612.599 142.481L597.902 177.093H626.9L612.599 142.481Z" fill="#151515"/>
</svg>
